<?xml version="1.0" encoding="UTF-8"?>
<svg version="1.1" xmlns="http://www.w3.org/2000/svg" width="728" height="328">
<path d="M0 0 C3.63182117 1.46226498 5.24169871 3.29504292 7.4375 6.5 C8.27087891 7.69109375 8.27087891 7.69109375 9.12109375 8.90625 C14.04345741 17.01126459 16.91648741 24.61999877 18.9375 33.875 C22.3518575 48.32485191 26.08821913 58.59864152 39 66.9375 C39.66 67.288125 40.32 67.63875 41 68 C40.67386719 66.89140625 40.34773438 65.7828125 40.01171875 64.640625 C38.76726029 59.65400416 38.74040578 54.86489542 38.8125 49.75 C38.8134668 48.42355469 38.8134668 48.42355469 38.81445312 47.0703125 C38.8408011 43.19423215 38.9332971 39.74755872 40 36 C41.43793392 36.31049726 42.8753318 36.6234776 44.3125 36.9375 C45.11300781 37.11152344 45.91351563 37.28554687 46.73828125 37.46484375 C49 38 49 38 52 39 C51.94199219 40.24652344 51.88398437 41.49304688 51.82421875 42.77734375 C51.17024378 63.01656905 56.05766299 77.83883588 68.5625 93.9375 C79.11919653 107.72583832 83.00786962 124.38855692 86.0625 141.1875 C86.1897345 141.8790921 86.31696899 142.5706842 86.44805908 143.28323364 C91.11673335 168.79668068 95.72390885 196.2935165 90 222 C86.96525291 219.05721495 84.06934208 216.02568744 81.25 212.875 C80.65703125 212.21242188 80.0640625 211.54984375 79.453125 210.8671875 C78 209 78 209 77 206 C75.68711709 205.29391171 74.3506061 204.63094008 73 204 C71.88842041 203.03149501 70.80721508 202.02757354 69.75 201 C47.69934294 181.36753768 17.70743033 174.31511535 -11 172 C-11.13392857 163.96428571 -11.13392857 163.96428571 -10 160 C14.27329987 160.67802514 36.83045904 166.70191376 58.24609375 178.07470703 C60.80907628 179.42683729 63.40389905 180.71288815 66 182 C67.33333333 182.66666667 68.66666667 183.33333333 70 184 C69.97679688 183.40316406 69.95359375 182.80632812 69.9296875 182.19140625 C69.80737726 176.31177814 70.23067579 170.63709935 71 164.8125 C73.22897632 147.17280873 71.86319763 131.00968937 65.76953125 114.2578125 C65 112 65 112 65 110 C50.58906953 104.9962047 38.8331467 103.16566761 24 108 C22.60577948 108.40147711 21.21016161 108.79817142 19.8125 109.1875 C18.4203125 109.5896875 18.4203125 109.5896875 17 110 C16.32880451 108.5437455 15.66318193 107.08492133 15 105.625 C14.62875 104.81289062 14.2575 104.00078125 13.875 103.1640625 C13 101 13 101 13 99 C26.50478877 93.29313765 37.39392046 91.40110964 52 93 C42.22220629 81.92808653 30.91361978 76.19136198 16.2265625 74.72265625 C9.68459237 74.48284796 3.60934796 75.7478506 -2.73828125 77.24609375 C-5.81524371 77.95729585 -8.88048293 78.51390279 -12 79 C-12.67119549 77.5437455 -13.33681807 76.08492133 -14 74.625 C-14.37125 73.81289062 -14.7425 73.00078125 -15.125 72.1640625 C-16 70 -16 70 -16 68 C-14.02231717 67.37032046 -12.04276065 66.74652511 -10.0625 66.125 C-8.96035156 65.77695313 -7.85820312 65.42890625 -6.72265625 65.0703125 C-2.51409539 63.86029605 1.71697989 62.90315991 6 62 C4.99582031 61.34515625 3.99164062 60.6903125 2.95703125 60.015625 C-4.16988494 55.28944642 -10.97868814 50.45732919 -17.25 44.625 C-17.77360107 44.13805664 -18.29720215 43.65111328 -18.83666992 43.14941406 C-21.8340412 40.28991499 -24.48700795 37.29082292 -27 34 C-25.50902342 30.2047869 -23.24299151 28.38957269 -20 26 C-17.01438259 27.10578423 -15.82945629 28.21091978 -13.7890625 30.734375 C-10.9318819 34.24223199 -7.64799665 36.89245788 -4.0625 39.625 C-3.46759766 40.0890625 -2.87269531 40.553125 -2.25976562 41.03125 C1.39298232 43.85763857 5.12853898 46.48207268 9 49 C6.39360277 35.07980028 3.74239051 22.48999896 -5 11 C-5 10.34 -5 9.68 -5 9 C-5.66 9 -6.32 9 -7 9 C-6.82374165 6.62051228 -6.30280227 5.29774151 -4.59765625 3.62109375 C-3.09350908 2.37884514 -1.54870149 1.18623944 0 0 Z " fill="#2C316A" transform="translate(27,88)"/>
<path d="M0 0 C1.32 0 2.64 0 4 0 C4 0.66 4 1.32 4 2 C4.66 2 5.32 2 6 2 C6 2.66 6 3.32 6 4 C7.32 4.66 8.64 5.32 10 6 C8.87548273 8.9719385 7.77706209 11.33440687 6 14 C5.34 14 4.68 14 4 14 C3.7525 14.78375 3.505 15.5675 3.25 16.375 C2.59352567 18.27877555 1.92117569 20.18101689 1.1171875 22.02734375 C-2.32869097 29.96371739 -6 40.24819627 -6 49 C-5.30132812 48.4946875 -4.60265625 47.989375 -3.8828125 47.46875 C-2.97273438 46.8190625 -2.06265625 46.169375 -1.125 45.5 C-0.22007812 44.8503125 0.68484375 44.200625 1.6171875 43.53125 C4 42 4 42 6 42 C6 41.34 6 40.68 6 40 C6.66 40 7.32 40 8 40 C8 39.34 8 38.68 8 38 C9.6796875 36.37890625 9.6796875 36.37890625 11.875 34.5625 C14.46193722 32.41599116 16.11184374 30.83223438 18 28 C18.66 28 19.32 28 20 28 C20 27.34 20 26.68 20 26 C21.32 26 22.64 26 24 26 C24 26.66 24 27.32 24 28 C24.66 28 25.32 28 26 28 C26 28.66 26 29.32 26 30 C27.32 30.66 28.64 31.32 30 32 C28.58785046 36.55025964 26.05551956 39.33761009 22.6875 42.5625 C22.21376953 43.03107422 21.74003906 43.49964844 21.25195312 43.98242188 C13.05496066 52 13.05496066 52 10 52 C10 52.66 10 53.32 10 54 C8.02 54.66 6.04 55.32 4 56 C4 56.66 4 57.32 4 58 C0.04 59.98 0.04 59.98 -4 62 C-3.26136719 62.09796875 -2.52273437 62.1959375 -1.76171875 62.296875 C5.5667945 63.37706247 12.13956657 65.21801321 19 68 C17.95902388 71.86648272 16.96301592 75.49461443 15 79 C11.23596999 78.52949625 7.61167498 77.94863092 3.9375 77 C-9.21039605 73.61839142 -22.05281997 74.2658183 -34.0390625 80.9765625 C-36 82 -36 82 -38 82 C-38 82.66 -38 83.32 -38 84 C-38.70125 84.4125 -39.4025 84.825 -40.125 85.25 C-43.69135061 87.42082211 -46.11888799 89.98488278 -49 93 C-48.28457031 92.84144531 -47.56914062 92.68289062 -46.83203125 92.51953125 C-38.87925174 91.06060756 -31.39678811 91.8769628 -23.625 93.8125 C-22.95944092 93.9777417 -22.29388184 94.1429834 -21.6081543 94.31323242 C-17.45148462 95.42247807 -13.78034745 96.95767607 -10 99 C-10.78318689 102.91593446 -12.39179858 106.36406635 -14 110 C-17.84778833 109.3268142 -21.37446216 108.21254654 -25.0625 106.9375 C-38.28211858 102.88704448 -49.24201627 105.74733876 -62 110 C-62.12503906 110.71027344 -62.25007813 111.42054688 -62.37890625 112.15234375 C-63.01609338 115.07378661 -63.92380636 117.75093463 -64.9375 120.5625 C-71.30198681 139.58652965 -69.06793593 158.14170571 -66.27539062 177.61254883 C-66 180 -66 180 -66 184 C-65.14019531 183.49210938 -64.28039062 182.98421875 -63.39453125 182.4609375 C-40.31703442 168.96532532 -14.17059859 159.06308281 13 160 C14.26237731 162.52475462 14.09856404 164.31200466 14.0625 167.125 C14.05347656 168.03507813 14.04445313 168.94515625 14.03515625 169.8828125 C14.02355469 170.58148438 14.01195312 171.28015625 14 172 C13.3922876 172.06993164 12.7845752 172.13986328 12.15844727 172.21191406 C-7.91922585 174.56442658 -25.37224124 178.22220071 -43.97973633 186.21557617 C-45.9685161 186.9877755 -47.92110451 187.52995079 -50 188 C-50 188.66 -50 189.32 -50 190 C-51.43570266 190.81567174 -52.87363434 191.62742093 -54.3125 192.4375 C-55.51326172 193.11619141 -55.51326172 193.11619141 -56.73828125 193.80859375 C-59 195 -59 195 -62 196 C-62 196.66 -62 197.32 -62 198 C-63.65071396 199.02611949 -65.31970006 200.02308143 -67 201 C-67.556875 201.556875 -68.11375 202.11375 -68.6875 202.6875 C-69.120625 203.120625 -69.55375 203.55375 -70 204 C-70.66 204 -71.32 204 -72 204 C-72 204.66 -72 205.32 -72 206 C-72.66 206 -73.32 206 -74 206 C-74.99 207.98 -74.99 207.98 -76 210 C-76.66 210 -77.32 210 -78 210 C-77.98839844 209.20980469 -77.97679688 208.41960937 -77.96484375 207.60546875 C-77.85432982 193.7912273 -78.39995133 180.21817284 -80.5625 166.5625 C-84.55774209 140.49005975 -80.12199151 119.31549005 -68 96 C-67.34 96 -66.68 96 -66 96 C-65.71125 95.4225 -65.4225 94.845 -65.125 94.25 C-64.08333333 92.16666667 -63.04166667 90.08333333 -62 88 C-61.34 88 -60.68 88 -60 88 C-59.34 86.02 -58.68 84.04 -58 82 C-57.34 82 -56.68 82 -56 82 C-56 80.68 -56 79.36 -56 78 C-55.34 78 -54.68 78 -54 78 C-53.7834375 76.9171875 -53.7834375 76.9171875 -53.5625 75.8125 C-53.04166667 73.20833333 -52.52083333 70.60416667 -52 68 C-51.34 68 -50.68 68 -50 68 C-50.020625 67.05125 -50.04125 66.1025 -50.0625 65.125 C-50 62 -50 62 -49 60 C-48.91599471 58.40552536 -48.89272533 56.80759455 -48.90234375 55.2109375 C-48.90556641 54.26992187 -48.90878906 53.32890625 -48.91210938 52.359375 C-48.92048828 51.37453125 -48.92886719 50.3896875 -48.9375 49.375 C-48.94201172 48.38242188 -48.94652344 47.38984375 -48.95117188 46.3671875 C-48.96297855 43.9113984 -48.979446 41.45572896 -49 39 C-47.56445975 38.49440092 -46.1264798 37.9957251 -44.6875 37.5 C-43.88699219 37.2215625 -43.08648437 36.943125 -42.26171875 36.65625 C-40 36 -40 36 -37 36 C-35.69538199 40.58340612 -35.81595061 45.01575959 -35.8125 49.75 C-35.80025391 50.61882812 -35.78800781 51.48765625 -35.77539062 52.3828125 C-35.76288524 57.93520256 -36.43222152 62.6707925 -38 68 C-36.576875 67.01 -36.576875 67.01 -35.125 66 C-32 64 -32 64 -30 64 C-30 63.34 -30 62.68 -30 62 C-28.125 59.875 -28.125 59.875 -26 58 C-25.34 58 -24.68 58 -24 58 C-23.731875 57.13375 -23.46375 56.2675 -23.1875 55.375 C-22 52 -22 52 -20.578125 49.4609375 C-18.09288957 44.01064395 -17.17501472 38.25276576 -15.98242188 32.40625 C-14.28773469 24.46480327 -11.69623836 17.22993688 -8 10 C-7.34 10 -6.68 10 -6 10 C-5.71125 9.4225 -5.4225 8.845 -5.125 8.25 C-4.08333333 6.16666667 -3.04166667 4.08333333 -2 2 C-1.34 2 -0.68 2 0 2 C0 1.34 0 0.68 0 0 Z " fill="#692F7C" transform="translate(204,88)"/>
<path d="M0 0 C30.10185937 -0.55936008 57.30327162 1.91551086 84 17 C84.98226562 17.54269531 85.96453125 18.08539063 86.9765625 18.64453125 C96.80887405 24.46741316 106.7435925 32.70330143 112.55859375 42.671875 C114.03860437 44.275098 114.03860437 44.275098 116.89453125 44.51171875 C121.02834639 43.83054921 121.83512609 42.42212419 124.25 39.0625 C142.40799302 15.46617297 171.49496227 4.1929044 200.3046875 0.34375 C206.8671165 -0.28296974 213.47815781 -0.10468652 220.0625 -0.0625 C221.41861813 -0.05747314 222.77473808 -0.05291234 224.13085938 -0.04882812 C227.42061994 -0.03712079 230.71028594 -0.02072211 234 0 C234 3.96 234 7.92 234 12 C232.11539063 12.03738281 230.23078125 12.07476562 228.2890625 12.11328125 C214.34787953 12.44934685 200.6337666 12.82131317 187 16 C186.31115723 16.1542041 185.62231445 16.3084082 184.91259766 16.46728516 C168.83027858 20.1968958 153.14361719 27.70574734 141 39 C140.28714844 39.63421875 139.57429687 40.2684375 138.83984375 40.921875 C134.89233519 44.61113534 132.78253511 47.48923636 130.75 52.5 C129.18374154 55.32102014 128.03636058 56.69601054 124.90087891 57.61572266 C118.94723213 58.5870515 112.82445496 58.72581334 107 57 C104.13017856 54.55864335 103.03921039 52.47980362 101.46484375 49.078125 C94.70974703 34.88341508 75.21849177 25.24014057 61 20 C45.48380421 14.94630368 29.98203301 12.7706184 13.6875 12.375 C12.349588 12.33667651 11.01169687 12.2976174 9.67382812 12.2578125 C6.44941828 12.16468875 3.22472928 12.08131368 0 12 C0 8.04 0 4.08 0 0 Z " fill="#2D336A" transform="translate(0,271)"/>
<path d="M0 0 C0.85464844 -0.01417969 1.70929687 -0.02835938 2.58984375 -0.04296875 C5.0625 0.1875 5.0625 0.1875 9.0625 2.1875 C9.0625 11.7575 9.0625 21.3275 9.0625 31.1875 C20.2825 31.1875 31.5025 31.1875 43.0625 31.1875 C43.0625 21.2875 43.0625 11.3875 43.0625 1.1875 C56.0625 0.1875 56.0625 0.1875 59.0625 1.1875 C59.0625 26.5975 59.0625 52.0075 59.0625 78.1875 C53.7825 78.1875 48.5025 78.1875 43.0625 78.1875 C43.0625 67.6275 43.0625 57.0675 43.0625 46.1875 C31.8425 46.1875 20.6225 46.1875 9.0625 46.1875 C9.10206744 55.97048659 9.10206744 55.97048659 9.15258789 65.75341797 C9.15508545 66.96658691 9.15758301 68.17975586 9.16015625 69.4296875 C9.16801147 71.29923096 9.16801147 71.29923096 9.17602539 73.20654297 C9.0625 76.1875 9.0625 76.1875 8.0625 78.1875 C2.7825 78.1875 -2.4975 78.1875 -7.9375 78.1875 C-7.9375 52.7775 -7.9375 27.3675 -7.9375 1.1875 C-5.02663331 0.2172111 -3.03526315 0.02282153 0 0 Z " fill="#692D7C" transform="translate(538.9375,173.8125)"/>
<path d="M0 0 C1.375 1.9375 1.375 1.9375 1.16796875 3.8203125 C0.20931528 6.37987004 -1.02525262 7.80499464 -2.9375 9.75 C-3.53175781 10.37519531 -4.12601562 11.00039062 -4.73828125 11.64453125 C-6.625 12.9375 -6.625 12.9375 -8.6015625 12.79296875 C-10.80601265 11.86097149 -12.69270557 10.75967588 -14.6875 9.4375 C-21.29437467 5.07518736 -27.874444 5.21709576 -35.625 5.9375 C-41.72426669 7.72715325 -46.39196383 10.65126755 -49.73046875 16.125 C-53.32137109 23.40088945 -53.71747838 30.91711856 -51.4375 38.625 C-49.31317662 44.27019269 -46.22322657 48.26612209 -40.9375 51.25 C-33.24110338 54.70759172 -25.56121939 54.43467248 -17.625 51.9375 C-16.965 51.6075 -16.305 51.2775 -15.625 50.9375 C-15.295 43.3475 -14.965 35.7575 -14.625 27.9375 C-9.345 27.9375 -4.065 27.9375 1.375 27.9375 C1.48996959 32.28079574 1.58942403 36.61879552 1.6496582 40.96240234 C1.67476737 42.43882146 1.70886255 43.91511668 1.75219727 45.39111328 C1.813018 47.5162614 1.84124209 49.63976394 1.86328125 51.765625 C1.88946533 53.0434082 1.91564941 54.32119141 1.94262695 55.63769531 C1.375 58.9375 1.375 58.9375 -0.9855957 61.29516602 C-3.64555918 62.95029268 -6.26305986 64.35079351 -9.125 65.625 C-10.0428125 66.04136719 -10.960625 66.45773438 -11.90625 66.88671875 C-21.6210679 70.64144003 -35.7132125 70.56077754 -45.4609375 66.9765625 C-55.1718339 62.31392993 -63.95653391 55.32026869 -67.625 44.9375 C-71.4104782 32.80882784 -71.32246788 22.12400325 -65.9375 10.5 C-60.51947389 0.69285178 -52.92124683 -5.05222988 -42.375 -8.87890625 C-27.42839204 -12.80788592 -12.05287126 -9.47011314 0 0 Z " fill="#2A3068" transform="translate(336.625,78.0625)"/>
<path d="M0 0 C-0.70513331 2.93469766 -1.52018415 5.81197623 -2.4375 8.6875 C-2.68371094 9.47511719 -2.92992187 10.26273438 -3.18359375 11.07421875 C-4 13 -4 13 -6 14 C-7.63248324 13.26850478 -9.23190488 12.46273855 -10.8125 11.625 C-18.09587577 8.18908423 -26.16935451 6.84125316 -34.125 8.6875 C-37.25875927 10.11812923 -38.59888211 10.84748475 -40 14 C-40.5705376 17.08226354 -40.5705376 17.08226354 -39 20 C-34.71897439 22.81067336 -29.55214064 23.87041573 -24.6484375 25.14453125 C-5.1421128 30.21752249 -5.1421128 30.21752249 0.5 38.1875 C3.54604969 43.89884316 4.14493947 49.91613948 2.38671875 56.1875 C-0.38423579 62.43740628 -5.07172006 66.91379483 -11.07421875 70.1015625 C-23.28671599 74.66259986 -39.31992698 73.178276 -51 68 C-53.83714866 66.47794305 -56.36287394 64.86150075 -59 63 C-58.54554036 61.58208592 -58.08625056 60.16571954 -57.625 58.75 C-57.24214844 57.56664062 -57.24214844 57.56664062 -56.8515625 56.359375 C-56.04826333 54.13372042 -55.10288338 52.09068328 -54 50 C-49.77093646 50.85948636 -46.31777751 52.83258816 -42.53515625 54.84375 C-37.85950575 56.97625007 -33.53354939 57.13681008 -28.4375 57.125 C-27.32246094 57.12757813 -26.20742188 57.13015625 -25.05859375 57.1328125 C-21.43515193 56.98398452 -21.43515193 56.98398452 -18 56 C-17.34 55.01 -16.68 54.02 -16 53 C-15.34 53 -14.68 53 -14 53 C-14.495 49.04 -14.495 49.04 -15 45 C-19.39453689 43.45377406 -23.78107433 42.03889385 -28.2890625 40.86328125 C-49.52041326 35.31440594 -49.52041326 35.31440594 -56 26 C-57.91147804 20.26556587 -58.20171718 13.25810392 -56.09375 7.54296875 C-51.26508329 -0.55123859 -45.33460795 -3.7897522 -36.4296875 -6.2734375 C-23.87748987 -8.93255909 -11.06831001 -6.29374491 0 0 Z " fill="#2A3068" transform="translate(525,75)"/>
<path d="M0 0 C1.58251594 4.97362152 2.41607621 9.65056433 2.6875 14.875 C2.7280249 15.57173828 2.7685498 16.26847656 2.81030273 16.98632812 C3.06450992 22.13028533 2.81560038 26.92515322 2 32 C10.058105 25.4174541 10.058105 25.4174541 16 17 C16.66 17 17.32 17 18 17 C18.268125 16.13375 18.53625 15.2675 18.8125 14.375 C19.97111987 11.08208036 21.38209839 8.08872125 23 5 C26.02419525 5.58803797 29.01758453 6.22678118 32 7 C32 7.66 32 8.32 32 9 C32.66 9 33.32 9 34 9 C32.05045834 16.21330414 28.12247118 22.81629324 24 29 C23.34 29 22.68 29 22 29 C21.690625 29.804375 21.690625 29.804375 21.375 30.625 C19.46749574 33.91978009 16.95180616 36.59363628 14 39 C13.34 39 12.68 39 12 39 C12 39.66 12 40.32 12 41 C10.2163382 42.31990973 8.37010988 43.55572191 6.5 44.75 C2.01521071 47.65504081 -2.29130812 50.64880138 -6.4765625 53.96875 C-8 55 -8 55 -10 55 C-10 55.66 -10 56.32 -10 57 C-11.43359375 58.15625 -11.43359375 58.15625 -13.4375 59.5 C-27.69089435 69.89362562 -35.44436032 85.04233384 -39 102 C-39.93839854 108.67153415 -40.10481507 115.22211363 -40.18969727 121.95483398 C-40.36833302 134.93010649 -41.09188975 146.81122435 -46 159 C-46.66 159 -47.32 159 -48 159 C-52.20085686 147.92774157 -53.47274501 137.59379112 -53.4375 125.75 C-53.43492188 124.50847168 -53.43234375 123.26694336 -53.4296875 121.98779297 C-53.10841328 101.75019467 -48.95107853 85.42846914 -39 68 C-38.4534375 67.00871094 -37.906875 66.01742187 -37.34375 64.99609375 C-36.9003125 64.33738281 -36.456875 63.67867188 -36 63 C-35.34 63 -34.68 63 -34 63 C-34 62.34 -34 61.68 -34 61 C-33.34 61 -32.68 61 -32 61 C-32 60.34 -32 59.68 -32 59 C-31.34 59 -30.68 59 -30 59 C-30 58.34 -30 57.68 -30 57 C-29.34 57 -28.68 57 -28 57 C-28 56.34 -28 55.68 -28 55 C-27.34 55 -26.68 55 -26 55 C-26 54.34 -26 53.68 -26 53 C-25.34 53 -24.68 53 -24 53 C-23.67 51.68 -23.34 50.36 -23 49 C-22.01 49 -21.02 49 -20 49 C-20 48.34 -20 47.68 -20 47 C-19.38125 46.79375 -18.7625 46.5875 -18.125 46.375 C-15.08866054 44.41030976 -14.95875369 42.4515133 -14 39 C-13.484375 37.88625 -12.96875 36.7725 -12.4375 35.625 C-8.87326458 26.13249546 -9.49048882 14.9525515 -11.72265625 5.2578125 C-11.81417969 4.51273438 -11.90570313 3.76765625 -12 3 C-8.61613364 -0.38386636 -4.56431325 -1.75550509 0 0 Z " fill="#6B327D" transform="translate(164,57)"/>
<path d="M0 0 C4.95 0 9.9 0 15 0 C16.74506615 1.74506615 16.23282784 4.19039143 16.31640625 6.56640625 C16.35830078 7.69111328 16.40019531 8.81582031 16.44335938 9.97460938 C16.48267578 11.15861328 16.52199219 12.34261719 16.5625 13.5625 C16.60568359 14.75037109 16.64886719 15.93824219 16.69335938 17.16210938 C16.79983546 20.10794784 16.90184841 23.0538743 17 26 C17.99 25.67 18.98 25.34 20 25 C20 24.34 20 23.68 20 23 C29.07024986 20.31251856 36.92975014 20.31251856 46 23 C46 23.66 46 24.32 46 25 C46.66 25 47.32 25 48 25 C48 25.66 48 26.32 48 27 C49.32 27.66 50.64 28.32 52 29 C52 29.66 52 30.32 52 31 C52.66 31 53.32 31 54 31 C57.55467623 41.56384053 57.35094502 51.76320543 57.1875 62.75 C57.17241866 64.52603026 57.15873639 66.30207297 57.14648438 68.078125 C57.11634544 72.38598382 57.05758116 76.69207588 57 81 C51.72 81 46.44 81 41 81 C40.95101562 78.48246094 40.90203125 75.96492188 40.8515625 73.37109375 C40.79745155 70.91522615 40.74018395 68.45945085 40.68261719 66.00366211 C40.64448871 64.30549076 40.60960854 62.60724308 40.578125 60.90893555 C40.53212178 58.45854533 40.47418849 56.00867333 40.4140625 53.55859375 C40.40251129 52.80726669 40.39096008 52.05593964 40.37905884 51.28184509 C40.2481379 46.53634262 39.70832229 42.4535102 38 38 C33.12078471 35.70389869 29.18688741 35.75130488 24 37 C20.19050695 38.77776342 18.56278989 40.13699988 17 44 C15.47567351 53.05967631 15.92386103 62.508061 16.03662109 71.65966797 C16.04516113 72.58021973 16.05370117 73.50077148 16.0625 74.44921875 C16.07410156 75.27768311 16.08570313 76.10614746 16.09765625 76.9597168 C16 79 16 79 15 81 C10.05 81 5.1 81 0 81 C0 54.27 0 27.54 0 0 Z " fill="#642779" transform="translate(434,171)"/>
<path d="M0 0 C2.61359201 5.04693629 3.59104724 9.17392494 2.7109375 14.81640625 C1.47026023 18.62705786 -0.86582437 21.53376344 -4 24 C-5.32 24.33 -6.64 24.66 -8 25 C-8 41.17 -8 57.34 -8 74 C-12.95 74 -17.9 74 -23 74 C-23.33 72.68 -23.66 71.36 -24 70 C-25.0725 70.639375 -26.145 71.27875 -27.25 71.9375 C-33.42673263 75.61978291 -39.94512377 75.76362744 -47 75 C-53.52792853 72.91106287 -58.33099261 69.78146619 -62 64 C-64.71111563 57.76867651 -65.41889492 52.10906518 -65.29296875 45.37109375 C-65.28872391 44.49598648 -65.28447906 43.62087921 -65.28010559 42.71925354 C-65.26347981 39.95833928 -65.22585966 37.19818895 -65.1875 34.4375 C-65.17243228 32.55144293 -65.15874756 30.66537427 -65.14648438 28.77929688 C-65.11362937 24.18590917 -65.06196135 19.59308353 -65 15 C-62.52076199 14.97314905 -60.0418116 14.95323453 -57.5625 14.9375 C-56.85544922 14.92912109 -56.14839844 14.92074219 -55.41992188 14.91210938 C-53.61306441 14.90346412 -51.80612397 14.94779989 -50 15 C-47.97512964 17.02487036 -48.83898123 21.19639417 -48.82421875 23.98046875 C-48.80100755 25.63608024 -48.7768897 27.29167922 -48.75195312 28.94726562 C-48.71692 31.56299031 -48.6875476 34.1782594 -48.67407227 36.79418945 C-48.65853566 39.31518299 -48.61827612 41.83483287 -48.57421875 44.35546875 C-48.57612717 45.13069382 -48.57803558 45.90591888 -48.58000183 46.70463562 C-48.4643812 51.87247188 -47.46914392 54.93331149 -44 59 C-39.28428001 60.57190666 -35.45181501 60.50255135 -30.75 58.875 C-27.32789916 56.54174943 -26.53497262 54.83481401 -25 51 C-24.68723713 48.18319155 -24.51277122 45.573291 -24.48828125 42.7578125 C-24.47033005 41.98944061 -24.45237885 41.22106873 -24.43388367 40.42941284 C-24.38005042 37.99466305 -24.34597308 35.5601062 -24.3125 33.125 C-24.27930295 31.46611914 -24.24481109 29.80726365 -24.20898438 28.1484375 C-24.12434009 24.09909818 -24.05740143 20.04981339 -24 16 C-23.14535156 15.86722656 -22.29070313 15.73445313 -21.41015625 15.59765625 C-20.30542969 15.42105469 -19.20070313 15.24445313 -18.0625 15.0625 C-16.96035156 14.88847656 -15.85820313 14.71445313 -14.72265625 14.53515625 C-12.09573071 14.28154864 -12.09573071 14.28154864 -11 13 C-10.92773498 11.14712498 -10.9161878 9.29166122 -10.9375 7.4375 C-10.94652344 6.42558594 -10.95554687 5.41367188 -10.96484375 4.37109375 C-10.97644531 3.58863281 -10.98804688 2.80617188 -11 2 C-3.6092413 -1.55324937 -3.6092413 -1.55324937 0 0 Z " fill="#2B3168" transform="translate(601,72)"/>
<path d="M0 0 C0 0.66 0 1.32 0 2 C1.98 2.66 3.96 3.32 6 4 C6 4.66 6 5.32 6 6 C6.66 6.33 7.32 6.66 8 7 C11.81566595 13.18444926 12.55921643 18.94350057 12.390625 26.06640625 C12.38496521 26.98590561 12.37930542 27.90540497 12.37347412 28.85276794 C12.35128849 31.75656764 12.30112758 34.65908057 12.25 37.5625 C12.2299119 39.54490391 12.2116652 41.52732738 12.1953125 43.50976562 C12.15148241 48.34033086 12.08258128 53.16994816 12 58 C7.05 58 2.1 58 -3 58 C-3.495 56.02 -3.495 56.02 -4 54 C-4.886875 54.639375 -5.77375 55.27875 -6.6875 55.9375 C-12.99575932 59.86528411 -20.06256926 59.80069187 -27.1875 58.1875 C-33.75920778 56.14057463 -36.90608388 53.34483493 -41 48 C-43.31426642 43.37146715 -42.32755096 37.18737222 -41 32.375 C-40.67 31.59125 -40.34 30.8075 -40 30 C-39.34 30 -38.68 30 -38 30 C-38 29.34 -38 28.68 -38 28 C-37.34 28 -36.68 28 -36 28 C-36 27.34 -36 26.68 -36 26 C-34.783125 25.525625 -33.56625 25.05125 -32.3125 24.5625 C-31.62800781 24.29566406 -30.94351563 24.02882812 -30.23828125 23.75390625 C-24.53861166 21.83412225 -19.14150341 21.87978035 -13.1875 21.9375 C-12.30384766 21.94201172 -11.42019531 21.94652344 -10.50976562 21.95117188 C-8.33981441 21.96290134 -6.16989828 21.98083505 -4 22 C-5.59916302 17.22899983 -5.59916302 17.22899983 -8.80078125 13.5859375 C-16.5394498 11.52412528 -24.25484616 12.33337606 -31.1953125 16.22265625 C-33 17 -33 17 -36 16 C-37.23828125 14.29296875 -37.23828125 14.29296875 -38.3125 12.1875 C-38.67988281 11.50042969 -39.04726563 10.81335938 -39.42578125 10.10546875 C-40 8 -40 8 -39.10546875 5.73828125 C-38.74066406 5.16464844 -38.37585938 4.59101563 -38 4 C-37.34 4 -36.68 4 -36 4 C-36 3.34 -36 2.68 -36 2 C-34.68 2 -33.36 2 -32 2 C-31.67 1.34 -31.34 0.68 -31 0 C-20.93480859 -3.07073636 -10.03933162 -3.21258612 0 0 Z M-24 34 C-24 34.66 -24 35.32 -24 36 C-24.66 36 -25.32 36 -26 36 C-26.21507247 39.15439619 -26.34870658 41.3405413 -24.8515625 44.171875 C-23.09837074 46.2395219 -23.09837074 46.2395219 -20.29296875 46.53125 C-13.93122332 46.46723244 -9.78059457 46.3929788 -5 42 C-3.63376326 39.26752652 -3.871574 37.01801098 -4 34 C-5.11659087 32.65841892 -5.11659087 32.65841892 -7.984375 32.8671875 C-9.22703125 32.86976563 -10.4696875 32.87234375 -11.75 32.875 C-12.98234375 32.87242187 -14.2146875 32.86984375 -15.484375 32.8671875 C-18.46916727 32.97994632 -21.10598262 33.30411032 -24 34 Z " fill="#6A317B" transform="translate(716,194)"/>
<path d="M0 0 C4.21873413 4.21873413 7.01395926 9.25063539 7.37025452 15.28753662 C7.36803391 16.00701477 7.36581329 16.72649292 7.36352539 17.46777344 C7.36344986 18.28832214 7.36337433 19.10887085 7.36329651 19.95428467 C7.35813522 20.83046448 7.35297394 21.70664429 7.34765625 22.609375 C7.3462413 23.51375305 7.34482635 24.4181311 7.34336853 25.34991455 C7.33777911 28.23331027 7.32522853 31.11662782 7.3125 34 C7.30748363 35.95703013 7.30292096 37.91406147 7.29882812 39.87109375 C7.28781313 44.66409253 7.27055574 49.45703302 7.25 54.25 C2.3 54.25 -2.65 54.25 -7.75 54.25 C-8.245 52.27 -8.245 52.27 -8.75 50.25 C-9.678125 50.889375 -10.60625 51.52875 -11.5625 52.1875 C-17.66542906 56.1364541 -23.67504041 55.71887306 -30.75 55.25 C-37.02677366 53.89285975 -41.84959293 50.93678241 -45.5625 45.6875 C-47.24727156 40.81052969 -47.43489993 36.35630948 -46.75 31.25 C-44.18336108 26.02166147 -40.57222432 22.66111216 -35.375 20.0625 C-29.26734906 18.17203661 -23.13798145 18.1170362 -16.8125 18.1875 C-16.03326172 18.19201172 -15.25402344 18.19652344 -14.45117188 18.20117188 C-12.55074732 18.21283092 -10.65036294 18.23076123 -8.75 18.25 C-10.35041627 13.46174159 -10.35041627 13.46174159 -13.5859375 9.8359375 C-21.3524936 7.73307935 -28.62990803 9.038695 -35.7890625 12.375 C-37.75 13.25 -37.75 13.25 -39.75 13.25 C-40.59114171 11.81705502 -41.42265687 10.37845595 -42.25 8.9375 C-42.7140625 8.13699219 -43.178125 7.33648437 -43.65625 6.51171875 C-44.75 4.25 -44.75 4.25 -44.75 1.25 C-30.2548054 -5.97003989 -14.54718617 -9.25730029 0 0 Z M-30.75 32.25 C-30.9839498 35.10418754 -31.16921004 37.45342775 -30.75 40.25 C-27.95082471 43.13947127 -25.18484811 43.47164276 -21.3125 43.6875 C-16.82134081 43.53779469 -14.20423202 42.19873465 -10.75 39.25 C-8.3205484 35.6058226 -8.58820425 33.53758728 -8.75 29.25 C-20.16445425 28.59221861 -20.16445425 28.59221861 -30.75 32.25 Z " fill="#252B64" transform="translate(422.75,91.75)"/>
<path d="M0 0 C0.99 0.33 1.98 0.66 3 1 C3 1.66 3 2.32 3 3 C3.5775 3.2475 4.155 3.495 4.75 3.75 C7.32939979 5.18299988 9.06121592 6.78424676 11 9 C11 9.66 11 10.32 11 11 C11.66 11 12.32 11 13 11 C17.31439263 22.47791248 17.94444508 31.50149323 13.12890625 43.09765625 C12.47253133 44.42610883 11.7466162 45.72008651 11 47 C10.34 47 9.68 47 9 47 C9 47.66 9 48.32 9 49 C8.34 49 7.68 49 7 49 C7 49.66 7 50.32 7 51 C-0.60841847 57.89512924 -9.27917134 58.25635097 -19 58 C-26.83191167 57.38891135 -34.28361727 52.84573429 -39.625 47.25 C-41 45 -41 45 -41 43 C-41.66 43 -42.32 43 -43 43 C-46.51230913 30.45603881 -47.44069856 20.71036101 -41 9 C-40.34 9 -39.68 9 -39 9 C-38.34 7.68 -37.68 6.36 -37 5 C-36.34 5 -35.68 5 -35 5 C-35 4.34 -35 3.68 -35 3 C-34.34 3 -33.68 3 -33 3 C-32.67 2.34 -32.34 1.68 -32 1 C-31.01 1 -30.02 1 -29 1 C-28.67 0.34 -28.34 -0.32 -28 -1 C-18.72877032 -4.70849187 -9.0708851 -3.71694443 0 0 Z M-27 16 C-30.12061648 21.14699082 -30.54443286 26.76194678 -29.703125 32.6328125 C-28.49522506 36.69940895 -26.26900178 39.36024269 -23 42 C-18.14501862 44.5893234 -13.25018564 44.24004385 -8 43 C-7.01 42.34 -6.02 41.68 -5 41 C-5 40.34 -5 39.68 -5 39 C-4.34 39 -3.68 39 -3 39 C0.56512977 33.50375828 0.70777833 28.34169384 0 22 C-1.77588165 17.2643156 -3.74476257 14.22427175 -8.1875 11.8125 C-15.53719675 9.68925427 -21.46810648 10.56960912 -27 16 Z " fill="#672D79" transform="translate(653,195)"/>
<path d="M0 0 C1.10214844 0.08894531 1.10214844 0.08894531 2.2265625 0.1796875 C7.69190188 1.04485706 10.30866026 3.94623031 13.75 8.125 C15 10 15 10 15 12 C15.66 12.33 16.32 12.66 17 13 C18.8763055 18.86849742 19.27320433 24.1869349 19.1953125 30.3125 C19.1924826 31.16682617 19.18965271 32.02115234 19.18673706 32.90136719 C19.17563879 35.60106053 19.15055427 38.30040877 19.125 41 C19.11495679 42.84244309 19.1058333 44.68489143 19.09765625 46.52734375 C19.0757335 51.01835994 19.04127646 55.50912168 19 60 C13.72 60 8.44 60 3 60 C2.94392578 56.20628906 2.94392578 56.20628906 2.88671875 52.3359375 C2.84044365 49.8734496 2.7892319 47.41111011 2.73754883 44.94873047 C2.70439364 43.24374488 2.67633263 41.53865202 2.65356445 39.83349609 C2.61984432 37.37551366 2.56752206 34.91850594 2.51171875 32.4609375 C2.50532883 31.70444916 2.4989389 30.94796082 2.49235535 30.16854858 C2.3619462 25.42306231 1.58826949 22.1208945 -1 18 C-5.67171359 14.46772875 -9.50417636 14.91871446 -15.0234375 15.67578125 C-16.00183594 15.83626953 -16.00183594 15.83626953 -17 16 C-17 16.66 -17 17.32 -17 18 C-17.66 18 -18.32 18 -19 18 C-22.44053051 26.72557873 -22.54508541 35.39776383 -22.6875 44.625 C-22.72074356 46.12112232 -22.75523947 47.61721735 -22.79101562 49.11328125 C-22.87741855 52.74220415 -22.93815345 56.37024758 -23 60 C-28.28 60 -33.56 60 -39 60 C-39.02255549 52.45501411 -39.04091769 44.91004069 -39.05181217 37.36502934 C-39.05703989 33.86191115 -39.0641355 30.35881715 -39.07543945 26.85571289 C-39.08834206 22.83219159 -39.09322912 18.80869586 -39.09765625 14.78515625 C-39.10539818 12.88987938 -39.10539818 12.88987938 -39.11329651 10.95631409 C-39.11337204 9.795186 -39.11344757 8.63405792 -39.11352539 7.43774414 C-39.11685631 5.8955294 -39.11685631 5.8955294 -39.12025452 4.32215881 C-39 2 -39 2 -38 1 C-35.46950598 0.92686433 -32.96695163 0.90752473 -30.4375 0.9375 C-29.72658203 0.94201172 -29.01566406 0.94652344 -28.28320312 0.95117188 C-26.52209987 0.96299136 -24.76103964 0.98092737 -23 1 C-23 2.65 -23 4.3 -23 6 C-22.34 6 -21.68 6 -21 6 C-21 5.34 -21 4.68 -21 4 C-13.83863676 0.52029205 -7.93951102 -0.73911364 0 0 Z " fill="#6A307D" transform="translate(403,192)"/>
<path d="M0 0 C1.6498275 0.42218816 3.29483665 0.86324425 4.9375 1.3125 C5.85402344 1.55613281 6.77054688 1.79976562 7.71484375 2.05078125 C8.46894531 2.36402344 9.22304687 2.67726562 10 3 C11 6 11 6 10.0625 9.4375 C7.12728015 20.43452233 9.07289319 32.2118916 13.8125 42.4375 C16.7813518 47.44291172 21.17461631 51.13472098 25.5715332 54.86889648 C31.31256766 59.85677346 34.19276938 64.39005789 39 71 C39.33 58.13 39.66 45.26 40 32 C44.63466892 30.84133277 47.33260039 31.29989006 52 32 C52.0744013 36.32328804 52.12871968 40.64623255 52.16479492 44.9699707 C52.17984066 46.43943782 52.20028238 47.90886034 52.22631836 49.37817383 C52.26288955 51.4957177 52.27976801 53.61266565 52.29296875 55.73046875 C52.3086792 57.00301514 52.32438965 58.27556152 52.34057617 59.58666992 C51.97719848 63.22852189 51.24823048 65.13752876 49 68 C48.34 68 47.68 68 47 68 C46.73316406 68.83402344 46.46632813 69.66804688 46.19140625 70.52734375 C44.6796793 74.93365609 42.91052896 79.222097 41.12304688 83.52148438 C39.70682816 86.99316266 38.57675066 90.29028281 38 94 C37.34 94 36.68 94 36 94 C35.70867187 93.32195312 35.41734375 92.64390625 35.1171875 91.9453125 C26.11043957 71.49602946 12.63649273 59.44620169 -5.25 46.875 C-18.29312957 37.65992173 -28.87310309 27.05213616 -35 12 C-35 11.34 -35 10.68 -35 10 C-33.73308493 9.32591692 -32.46129251 8.66099503 -31.1875 8 C-30.47980469 7.62875 -29.77210937 7.2575 -29.04296875 6.875 C-27 6 -27 6 -24 6 C-23.59910156 6.82242188 -23.19820312 7.64484375 -22.78515625 8.4921875 C-17.76052303 18.35915432 -11.85235432 26.15107324 -3 33 C-3.2475 31.329375 -3.2475 31.329375 -3.5 29.625 C-4.68807726 19.63117365 -3.61740147 10.75083761 -1 1 C-0.67 0.67 -0.34 0.34 0 0 Z " fill="#2E346B" transform="translate(71,56)"/>
<path d="M0 0 C1.20101852 0.02009628 2.40203705 0.04019257 3.63945007 0.06089783 C4.93639297 0.08793289 6.23333588 0.11496796 7.56958008 0.14282227 C8.91049898 0.16712965 10.25142637 0.1909729 11.59236145 0.21437073 C15.11878134 0.2771502 18.64505063 0.34623408 22.17132568 0.41662598 C25.77080436 0.48736495 29.37038967 0.5521486 32.9699707 0.61743164 C40.03063339 0.7463648 47.0911542 0.88195764 54.15161133 1.02172852 C54.34617838 2.97937234 54.5320538 4.93788172 54.71411133 6.89672852 C54.87073242 8.53254883 54.87073242 8.53254883 55.03051758 10.20141602 C55.15161133 13.02172852 55.15161133 13.02172852 54.15161133 15.02172852 C46.56161133 15.02172852 38.97161133 15.02172852 31.15161133 15.02172852 C31.15161133 35.81172852 31.15161133 56.60172852 31.15161133 78.02172852 C25.54161133 78.02172852 19.93161133 78.02172852 14.15161133 78.02172852 C13.82161133 57.56172852 13.49161133 37.10172852 13.15161133 16.02172852 C5.89161133 15.69172852 -1.36838867 15.36172852 -8.84838867 15.02172852 C-8.84838867 10.40172852 -8.84838867 5.78172852 -8.84838867 1.02172852 C-5.6162478 -0.05565177 -3.39499241 -0.06405646 0 0 Z " fill="#682E7D" transform="translate(274.848388671875,173.978271484375)"/>
<path d="M0 0 C0.66 0 1.32 0 2 0 C2.67667998 1.24460783 3.34094719 2.49596896 4 3.75 C4.556875 4.79414062 4.556875 4.79414062 5.125 5.859375 C6 8 6 8 6 12 C6.66 12 7.32 12 8 12 C8 13.32 8 14.64 8 16 C12.24733832 16.98142381 16.47324533 17.30920379 20.8125 17.5625 C21.50537109 17.60568359 22.19824219 17.64886719 22.91210938 17.69335938 C24.60788686 17.79861453 26.30392052 17.89972863 28 18 C28 19.32 28 20.64 28 22 C27.34 22 26.68 22 26 22 C26 22.66 26 23.32 26 24 C23.36107824 25.78305524 21.02821137 26.99059621 18 28 C18 28.66 18 29.32 18 30 C17.34 30 16.68 30 16 30 C16 34.62 16 39.24 16 44 C16.66 44 17.32 44 18 44 C18 46.31 18 48.62 18 51 C15.03 50.505 15.03 50.505 12 50 C12 49.34 12 48.68 12 48 C10.68 48 9.36 48 8 48 C8 47.34 8 46.68 8 46 C6.02 45.34 4.04 44.68 2 44 C2 43.34 2 42.68 2 42 C1.34 42 0.68 42 0 42 C0 42.66 0 43.32 0 44 C-0.969375 44.28875 -1.93875 44.5775 -2.9375 44.875 C-6.10664203 45.64214682 -6.10664203 45.64214682 -7 48 C-7.99 48 -8.98 48 -10 48 C-10 48.66 -10 49.32 -10 50 C-11.65614657 50.38218767 -13.32457024 50.71395102 -15 51 C-16 50 -16 50 -16.0625 46.9375 C-16.0315625 45.4834375 -16.0315625 45.4834375 -16 44 C-15.34 44 -14.68 44 -14 44 C-14 40.7 -14 37.4 -14 34 C-13.34 34 -12.68 34 -12 34 C-12 33.34 -12 32.68 -12 32 C-12.66 32 -13.32 32 -14 32 C-14 31.34 -14 30.68 -14 30 C-14.556875 29.7525 -15.11375 29.505 -15.6875 29.25 C-19.04043581 27.43760226 -22.26557246 25.46885508 -24 22 C-24.66 22 -25.32 22 -26 22 C-25.39453125 20.04296875 -25.39453125 20.04296875 -24 18 C-21.13671875 17.42578125 -21.13671875 17.42578125 -17.6875 17.3125 C-13.67208064 17.15224951 -9.92105023 16.90485774 -6 16 C-6 14.68 -6 13.36 -6 12 C-5.34 12 -4.68 12 -4 12 C-3.855625 11.0925 -3.71125 10.185 -3.5625 9.25 C-3.13590527 6.78523044 -2.64925779 4.41152893 -2 2 C-1.34 2 -0.68 2 0 2 C0 1.34 0 0.68 0 0 Z " fill="#E3B752" transform="translate(116,28)"/>
<path d="M0 0 C4.95 0 9.9 0 15 0 C16 1 16 1 16.12025452 3.32215881 C16.1169236 4.86437355 16.1169236 4.86437355 16.11352539 6.43774414 C16.11344986 7.59887222 16.11337433 8.76000031 16.11329651 9.95631409 C16.10813522 11.219832 16.10297394 12.48334991 16.09765625 13.78515625 C16.0962413 15.07111191 16.09482635 16.35706757 16.09336853 17.68199158 C16.08954418 21.10643443 16.07971462 24.53083509 16.06866455 27.95526123 C16.05844864 31.44738189 16.05387053 34.93950934 16.04882812 38.43164062 C16.03809226 45.28777953 16.02049614 52.1438834 16 59 C10.72 59 5.44 59 0 59 C0 39.53 0 20.06 0 0 Z " fill="#682E7B" transform="translate(336,193)"/>
<path d="M0 0 C4.95 0 9.9 0 15 0 C15 19.47 15 38.94 15 59 C9.72 59 4.44 59 -1 59 C-1.02255549 51.45501411 -1.04091769 43.91004069 -1.05181217 36.36502934 C-1.05703989 32.86191115 -1.0641355 29.35881715 -1.07543945 25.85571289 C-1.08834206 21.83219159 -1.09322912 17.80869586 -1.09765625 13.78515625 C-1.10539818 11.88987938 -1.10539818 11.88987938 -1.11329651 9.95631409 C-1.11337204 8.795186 -1.11344757 7.63405792 -1.11352539 6.43774414 C-1.11685631 4.8955294 -1.11685631 4.8955294 -1.12025452 3.32215881 C-1 1 -1 1 0 0 Z " fill="#2C336A" transform="translate(351,87)"/>
<path d="M0 0 C2.0078125 0.1328125 2.0078125 0.1328125 5.0078125 1.1328125 C5.0822138 5.45610054 5.13653218 9.77904505 5.17260742 14.1027832 C5.18765316 15.57225032 5.20809488 17.04167284 5.23413086 18.51098633 C5.27070205 20.6285302 5.28758051 22.74547815 5.30078125 24.86328125 C5.32434692 26.77210083 5.32434692 26.77210083 5.34838867 28.71948242 C4.98501098 32.36133439 4.25604298 34.27034126 2.0078125 37.1328125 C1.3478125 37.1328125 0.6878125 37.1328125 0.0078125 37.1328125 C-0.2603125 38.0403125 -0.5284375 38.9478125 -0.8046875 39.8828125 C-1.88795044 42.84753213 -2.97578207 44.7497879 -4.9921875 47.1328125 C-4.9921875 46.4728125 -4.9921875 45.8128125 -4.9921875 45.1328125 C-5.6521875 45.1328125 -6.3121875 45.1328125 -6.9921875 45.1328125 C-7.78970334 42.33935517 -8.10022839 39.92314783 -8.02978516 37.02270508 C-8.01291656 36.22540482 -7.99604797 35.42810455 -7.97866821 34.60664368 C-7.9547702 33.7554747 -7.93087219 32.90430573 -7.90625 32.02734375 C-7.88501068 31.14753342 -7.86377136 30.26772308 -7.84188843 29.36125183 C-7.79571127 27.50614673 -7.74679017 25.65110816 -7.6953125 23.79614258 C-7.6171958 20.9456152 -7.55018806 18.09497572 -7.484375 15.24414062 C-7.43816321 13.4426912 -7.39131052 11.64125807 -7.34375 9.83984375 C-7.32390045 8.98260208 -7.3040509 8.12536041 -7.28359985 7.24214172 C-7.07799842 0.25200582 -7.06194666 0.02605884 0 0 Z " fill="#6E3880" transform="translate(117.9921875,86.8671875)"/>
<path d="M0 0 C0.68320312 0.18304688 1.36640625 0.36609375 2.0703125 0.5546875 C3.875 1.125 3.875 1.125 5.875 2.125 C7.09262731 5.77788193 7.26575851 8.28254136 6.875 12.125 C4.875 15.5625 4.875 15.5625 1.875 18.125 C-1.73031733 18.93173437 -4.97430226 18.48837823 -8.5 17.375 C-10.62109306 15.74338996 -11.29451953 14.68564812 -12.125 12.125 C-12.57818346 7.97081831 -12.56702596 5.85118551 -10.375 2.25 C-6.96409406 -0.97141116 -4.44043635 -1.23251655 0 0 Z " fill="#642B77" transform="translate(346.125,167.875)"/>
<path d="M0 0 C2.75329021 1.79562405 4.52627461 3.05254922 6 6 C6.49267057 10.35192338 6.51752429 12.29982008 3.875 15.875 C0.6476458 18.26043571 -0.99934285 19 -5 19 C-8.97472063 17.47126129 -10.61853665 16.57219503 -13 13 C-13.39930774 9.90536499 -13.65047463 7.95879612 -13 5 C-9.06923744 0.39813164 -5.99319358 -0.9807044 0 0 Z " fill="#33386B" transform="translate(362,62)"/>
<path d="M0 0 C4.09189762 1.36396587 4.61547327 3.34848983 6.6875 7.0625 C7.31011719 8.16722656 7.93273437 9.27195312 8.57421875 10.41015625 C9.04472656 11.26480469 9.51523437 12.11945313 10 13 C10.47179687 12.22076172 10.47179687 12.22076172 10.953125 11.42578125 C13.41161133 7.41963334 15.8320106 3.49571244 19 0 C19.66 0 20.32 0 21 0 C22.11165232 4.4378561 22.11527763 8.76956386 22.0625 13.3125 C22.05798828 14.05306641 22.05347656 14.79363281 22.04882812 15.55664062 C22.03712175 17.37112899 22.01918898 19.18557534 22 21 C20.68 21.33 19.36 21.66 18 22 C17.67 18.04 17.34 14.08 17 10 C15.35 12.97 13.7 15.94 12 19 C8 18 8 18 6.734375 16.37109375 C5.82291667 14.58072917 4.91145833 12.79036458 4 11 C3.67 14.63 3.34 18.26 3 22 C1.68 22 0.36 22 -1 22 C-1.02887814 18.52085059 -1.04675687 15.04173169 -1.0625 11.5625 C-1.07087891 10.56927734 -1.07925781 9.57605469 -1.08789062 8.55273438 C-1.09111328 7.60849609 -1.09433594 6.66425781 -1.09765625 5.69140625 C-1.10289307 4.81685791 -1.10812988 3.94230957 -1.11352539 3.04125977 C-1 1 -1 1 0 0 Z " fill="#797B98" transform="translate(330,279)"/>
<path d="M0 0 C4.39594806 2.19797403 5.27619347 3.53370459 7.75 7.625 C8.36359375 8.62789063 8.9771875 9.63078125 9.609375 10.6640625 C10.06828125 11.43492187 10.5271875 12.20578125 11 13 C11.54269531 12.0615625 12.08539063 11.123125 12.64453125 10.15625 C13.36660923 8.9371573 14.08929719 7.71842575 14.8125 6.5 C15.16892578 5.87996094 15.52535156 5.25992187 15.89257812 4.62109375 C16.84631767 3.0286112 17.91697393 1.50753916 19 0 C19.99 0 20.98 0 22 0 C22 7.26 22 14.52 22 22 C20.68 22 19.36 22 18 22 C17.67 18.37 17.34 14.74 17 11 C16.236875 12.32 15.47375 13.64 14.6875 15 C13.38671875 17.25 13.38671875 17.25 12 19 C11.01 19 10.02 19 9 19 C7.35 16.03 5.7 13.06 4 10 C4 13.63 4 17.26 4 21 C2.68 21.33 1.36 21.66 0 22 C0 14.74 0 7.48 0 0 Z " fill="#8E91B2" transform="translate(388,279)"/>
<path d="M0 0 C1.5625 2.25 1.5625 2.25 2 5 C0.625 7.8125 0.625 7.8125 -1 10 C-0.34 10.66 0.32 11.32 1 12 C1.33 11.34 1.66 10.68 2 10 C2.99 10 3.98 10 5 10 C4.979375 10.9075 4.95875 11.815 4.9375 12.75 C4.9889755 15.42672588 5.2215017 17.46988052 6 20 C5.01 20.33 4.02 20.66 3 21 C3 20.34 3 19.68 3 19 C2.29875 19.33 1.5975 19.66 0.875 20 C-3.24047373 21.43146912 -6.37891286 21.76788338 -10.375 19.875 C-12 18 -12 18 -12.4375 15.0625 C-11.96903694 11.78325857 -11.21663014 10.40134932 -9 8 C-9.33 7.67 -9.66 7.34 -10 7 C-10.3125 4.625 -10.3125 4.625 -10 2 C-6.93533093 -1.53615662 -4.29182871 -1.49280999 0 0 Z M-6 3 C-5.67 3.99 -5.34 4.98 -5 6 C-4.01 5.67 -3.02 5.34 -2 5 C-2 4.34 -2 3.68 -2 3 C-3.32 3 -4.64 3 -6 3 Z M-6 11 C-7.485 12.98 -7.485 12.98 -9 15 C-7.8354799 16.66621425 -7.8354799 16.66621425 -6 18 C-3.34533951 17.76956136 -3.34533951 17.76956136 -1 17 C-2.36983503 13.83884224 -2.9890638 13.0072908 -6 11 Z " fill="#5D5D7E" transform="translate(595,280)"/>
<path d="M0 0 C4.28048254 0.04096156 7.16662438 0.88018085 10.8125 3.25 C12.21707737 6.05915474 12.06145157 8.13810534 11.8125 11.25 C10.3125 13.625 10.3125 13.625 8.8125 15.25 C9.3075 15.848125 9.8025 16.44625 10.3125 17.0625 C11.8125 19.25 11.8125 19.25 11.8125 22.25 C10.0625 22.0625 10.0625 22.0625 7.8125 21.25 C7.1525 20.404375 6.4925 19.55875 5.8125 18.6875 C5.1525 17.883125 4.4925 17.07875 3.8125 16.25 C2.4925 16.25 1.1725 16.25 -0.1875 16.25 C-0.5175 18.23 -0.8475 20.21 -1.1875 22.25 C-2.5075 22.25 -3.8275 22.25 -5.1875 22.25 C-5.21637814 18.77085059 -5.23425687 15.29173169 -5.25 11.8125 C-5.25837891 10.81927734 -5.26675781 9.82605469 -5.27539062 8.80273438 C-5.27861328 7.85849609 -5.28183594 6.91425781 -5.28515625 5.94140625 C-5.29039307 5.06685791 -5.29562988 4.19230957 -5.30102539 3.29125977 C-5.09550124 -0.40419701 -3.26443675 0.06561682 0 0 Z M-1.1875 4.25 C-1.1875 6.89 -1.1875 9.53 -1.1875 12.25 C3.46302872 12.51932521 3.46302872 12.51932521 7.8125 11.25 C7.8125 9.27 7.8125 7.29 7.8125 5.25 C4.85585481 3.7716774 2.07020263 4.18967217 -1.1875 4.25 Z " fill="#5F6189" transform="translate(507.1875,278.75)"/>
<path d="M0 0 C1.93166016 0.01740234 1.93166016 0.01740234 3.90234375 0.03515625 C5.19269531 0.04417969 6.48304688 0.05320312 7.8125 0.0625 C8.81152344 0.07410156 9.81054688 0.08570313 10.83984375 0.09765625 C10.83984375 1.41765625 10.83984375 2.73765625 10.83984375 4.09765625 C7.20984375 4.09765625 3.57984375 4.09765625 -0.16015625 4.09765625 C-0.16015625 5.74765625 -0.16015625 7.39765625 -0.16015625 9.09765625 C3.13984375 9.09765625 6.43984375 9.09765625 9.83984375 9.09765625 C9.83984375 10.41765625 9.83984375 11.73765625 9.83984375 13.09765625 C6.53984375 13.09765625 3.23984375 13.09765625 -0.16015625 13.09765625 C-0.16015625 14.74765625 -0.16015625 16.39765625 -0.16015625 18.09765625 C3.79984375 18.09765625 7.75984375 18.09765625 11.83984375 18.09765625 C11.83984375 19.41765625 11.83984375 20.73765625 11.83984375 22.09765625 C6.55984375 22.09765625 1.27984375 22.09765625 -4.16015625 22.09765625 C-4.18698826 18.6184389 -4.20691295 15.13942586 -4.22265625 11.66015625 C-4.23103516 10.66693359 -4.23941406 9.67371094 -4.24804688 8.65039062 C-4.25126953 7.70615234 -4.25449219 6.76191406 -4.2578125 5.7890625 C-4.26304932 4.91451416 -4.26828613 4.03996582 -4.27368164 3.13891602 C-4.08521174 -0.24989437 -3.47516227 0.10739068 0 0 Z " fill="#B2B4CE" transform="translate(314.16015625,278.90234375)"/>
<path d="M0 0 C4.26687808 2.13343904 5.83389766 3.93698822 8.75 7.625 C9.54921875 8.62789063 10.3484375 9.63078125 11.171875 10.6640625 C12.07679688 11.82035156 12.07679688 11.82035156 13 13 C13.33 8.71 13.66 4.42 14 0 C15.32 0.33 16.64 0.66 18 1 C18 7.93 18 14.86 18 22 C16.68 22 15.36 22 14 22 C12.06450375 19.86508899 10.41502911 17.82813664 8.75 15.5 C8.29109375 14.87996094 7.8321875 14.25992187 7.359375 13.62109375 C6.22809239 12.08914855 5.11251346 10.54562939 4 9 C3.67 13.29 3.34 17.58 3 22 C2.01 22 1.02 22 0 22 C0 14.74 0 7.48 0 0 Z " fill="#67698E" transform="translate(532,279)"/>
<path d="M0 0 C2.58297781 2.18991597 4.48415844 3.96831688 6 7 C6.2262475 12.0069555 5.69507747 15.16929766 2.4375 19.0625 C-1.62751709 21.35369145 -4.44435569 22.15928921 -9 21 C-12.01286852 19.23002108 -14.41228811 17.17542377 -16 14 C-16.57538625 6.98028769 -16.57538625 6.98028769 -14.3125 3.125 C-9.69197615 -1.12088678 -6.07161441 -1.62632529 0 0 Z M-10.375 4.625 C-12.4753727 7.69477548 -12.53293835 9.34556561 -12 13 C-11.16666667 15.5 -11.16666667 15.5 -9 17 C-6.22572253 17.56641498 -3.77427747 17.56641498 -1 17 C1.6923481 14.81246717 1.93936827 13.41576045 2.4375 10 C2.21611612 6.94241941 2.21611612 6.94241941 0.375 4.625 C-3.51410622 1.96403258 -6.48589378 1.96403258 -10.375 4.625 Z " fill="#626486" transform="translate(493,280)"/>
<path d="M0 0 C11.625 -0.125 11.625 -0.125 15 1 C15 1.99 15 2.98 15 4 C11.37 4 7.74 4 4 4 C4 5.65 4 7.3 4 9 C7.3 9 10.6 9 14 9 C14 10.32 14 11.64 14 13 C10.7 13 7.4 13 4 13 C4 14.65 4 16.3 4 18 C7.63 18 11.26 18 15 18 C15.33 18.99 15.66 19.98 16 21 C15 22 15 22 11.62109375 22.09765625 C10.22652508 22.09191424 8.83198403 22.07890228 7.4375 22.0625 C4.983125 22.041875 2.52875 22.02125 0 22 C0 14.74 0 7.48 0 0 Z " fill="#C1C3D9" transform="translate(612,279)"/>
<path d="M0 0 C0.99 0.33 1.98 0.66 3 1 C3 3.64 3 6.28 3 9 C6.3 9 9.6 9 13 9 C13 6.36 13 3.72 13 1 C14.32 0.67 15.64 0.34 17 0 C17 7.26 17 14.52 17 22 C15.68 22 14.36 22 13 22 C13 19.03 13 16.06 13 13 C9.7 13 6.4 13 3 13 C3 15.97 3 18.94 3 22 C1.68 22 0.36 22 -1 22 C-1.02887814 18.52085059 -1.04675687 15.04173169 -1.0625 11.5625 C-1.07087891 10.56927734 -1.07925781 9.57605469 -1.08789062 8.55273438 C-1.09111328 7.60849609 -1.09433594 6.66425781 -1.09765625 5.69140625 C-1.10289307 4.81685791 -1.10812988 3.94230957 -1.11352539 3.04125977 C-1 1 -1 1 0 0 Z " fill="#B5B9DB" transform="translate(711,279)"/>
<path d="M0 0 C2.0625 -0.04125 4.125 -0.0825 6.25 -0.125 C7.99023438 -0.15980469 7.99023438 -0.15980469 9.765625 -0.1953125 C12.87022651 -0.00783656 14.46806765 0.26331661 17 2 C19.29147823 5.39770909 20 7.44666853 20 11.5625 C18.80815947 15.65945182 17.28920817 17.33730767 14 20 C9.36297289 21.5456757 4.87528349 21.05735628 0 21 C0 14.07 0 7.14 0 0 Z M3 3 C2.91666643 7.8333472 3.04738513 12.23692563 4 17 C5.8871875 17.061875 5.8871875 17.061875 7.8125 17.125 C8.52019531 17.14820313 9.22789062 17.17140625 9.95703125 17.1953125 C12.31359719 17.13254462 12.31359719 17.13254462 15 15 C16.17761741 11.67583445 16.17761741 11.67583445 16 8 C14.21013047 4.8764117 14.21013047 4.8764117 11 3 C8.19190709 2.59588331 5.86001837 2.75762556 3 3 Z " fill="#73738E" transform="translate(631,280)"/>
<path d="M0 0 C1.79244141 0.01740234 1.79244141 0.01740234 3.62109375 0.03515625 C5.41740234 0.04869141 5.41740234 0.04869141 7.25 0.0625 C8.17683594 0.07410156 9.10367188 0.08570313 10.05859375 0.09765625 C10.38859375 1.41765625 10.71859375 2.73765625 11.05859375 4.09765625 C7.42859375 4.09765625 3.79859375 4.09765625 0.05859375 4.09765625 C0.05859375 5.74765625 0.05859375 7.39765625 0.05859375 9.09765625 C3.02859375 9.09765625 5.99859375 9.09765625 9.05859375 9.09765625 C9.05859375 10.41765625 9.05859375 11.73765625 9.05859375 13.09765625 C6.08859375 13.09765625 3.11859375 13.09765625 0.05859375 13.09765625 C0.05859375 14.74765625 0.05859375 16.39765625 0.05859375 18.09765625 C3.68859375 18.09765625 7.31859375 18.09765625 11.05859375 18.09765625 C11.05859375 19.41765625 11.05859375 20.73765625 11.05859375 22.09765625 C6.10859375 22.09765625 1.15859375 22.09765625 -3.94140625 22.09765625 C-3.96823826 18.6184389 -3.98816295 15.13942586 -4.00390625 11.66015625 C-4.01228516 10.66693359 -4.02066406 9.67371094 -4.02929688 8.65039062 C-4.03251953 7.70615234 -4.03574219 6.76191406 -4.0390625 5.7890625 C-4.04429932 4.91451416 -4.04953613 4.03996582 -4.05493164 3.13891602 C-3.87241007 -0.14293959 -3.34119162 0.11092934 0 0 Z " fill="#6E7191" transform="translate(674.94140625,278.90234375)"/>
<path d="M0 0 C10.76190476 0 10.76190476 0 14 2 C16.17807308 4.68629013 17.06716533 6.08207385 16.8125 9.5625 C16.05014293 11.8495712 15.16971114 13.89451994 14 16 C14.495 16.61875 14.99 17.2375 15.5 17.875 C17 20 17 20 17 22 C14.6875 21.8125 14.6875 21.8125 12 21 C11.505 20.154375 11.01 19.30875 10.5 18.4375 C9.7575 17.2309375 9.7575 17.2309375 9 16 C6.37305578 15.58219121 6.37305578 15.58219121 4 16 C4 17.65 4 19.3 4 21 C2.68 21.33 1.36 21.66 0 22 C0 14.74 0 7.48 0 0 Z M3 4 C3 6.64 3 9.28 3 12 C7.0100934 12.17864631 7.0100934 12.17864631 11 12 C11.66 11.34 12.32 10.68 13 10 C12.71016731 6.69316534 12.71016731 6.69316534 11 4 C8.32941149 3.85884839 5.67567762 3.95752893 3 4 Z " fill="#6B6D90" transform="translate(290,279)"/>
<path d="M0 0 C0.99 0.66 1.98 1.32 3 2 C2.67 2.99 2.34 3.98 2 5 C1.31292969 4.89300781 0.62585938 4.78601563 -0.08203125 4.67578125 C-0.98308594 4.55589844 -1.88414062 4.43601562 -2.8125 4.3125 C-3.70582031 4.18488281 -4.59914063 4.05726563 -5.51953125 3.92578125 C-8.02715058 3.77447365 -8.02715058 3.77447365 -9.8046875 5.2578125 C-11.75234281 8.09655193 -11.30232564 10.67441798 -11 14 C-7.99382731 17.00617269 -5.17618402 16.59585316 -1 17 C-1 14.69 -1 12.38 -1 10 C0.32 10 1.64 10 3 10 C3 12.97 3 15.94 3 19 C-1.1988405 21.09942025 -4.41348004 21.88913343 -9 21 C-12.02089981 19.2524257 -14.41608883 17.16782234 -16 14 C-16.57538625 6.98028769 -16.57538625 6.98028769 -14.3125 3.125 C-9.60866335 -1.19744449 -6.17851728 -1.37300384 0 0 Z " fill="#5E6085" transform="translate(569,280)"/>
<path d="M0 0 C4.77696149 0.06003363 8.83729162 0.71229162 12.3125 4.1875 C12.88159057 11.35804119 12.88159057 11.35804119 11.1171875 13.9296875 C8.68213369 15.62684622 7.06263842 15.48945344 4.125 15.375 C3.22394531 15.34792969 2.32289063 15.32085937 1.39453125 15.29296875 C0.70746094 15.25816406 0.02039063 15.22335937 -0.6875 15.1875 C-0.6875 17.4975 -0.6875 19.8075 -0.6875 22.1875 C-2.0075 21.8575 -3.3275 21.5275 -4.6875 21.1875 C-4.71638146 17.87501813 -4.73425799 14.56256833 -4.75 11.25 C-4.75837891 10.30447266 -4.76675781 9.35894531 -4.77539062 8.38476562 C-4.77861328 7.48564453 -4.78183594 6.58652344 -4.78515625 5.66015625 C-4.79039307 4.82750244 -4.79562988 3.99484863 -4.80102539 3.13696289 C-4.59481991 -0.40400645 -3.69328688 0.18779425 0 0 Z M-0.6875 4.1875 C-0.6875 6.8275 -0.6875 9.4675 -0.6875 12.1875 C4.03665328 12.58625273 4.03665328 12.58625273 8.3125 10.9375 C9.5184245 9.21342983 9.5184245 9.21342983 9.125 7.0625 C8.4689434 4.99785868 8.4689434 4.99785868 6.3125 4.1875 C3.9795134 4.14727609 1.64543334 4.14429753 -0.6875 4.1875 Z " fill="#363962" transform="translate(273.6875,278.8125)"/>
<path d="M0 0 C0.99 0 1.98 0 3 0 C3.06058594 1.05960937 3.12117188 2.11921875 3.18359375 3.2109375 C3.26800127 4.59897221 3.35264917 5.98699232 3.4375 7.375 C3.47681641 8.07367188 3.51613281 8.77234375 3.55664062 9.4921875 C3.74280134 13.37360492 3.74280134 13.37360492 5 17 C7.31 17.33 9.62 17.66 12 18 C12.33 12.39 12.66 6.78 13 1 C14.32 0.67 15.64 0.34 17 0 C17.08107646 2.75059381 17.14052813 5.49879021 17.1875 8.25 C17.21263672 9.02730469 17.23777344 9.80460937 17.26367188 10.60546875 C17.30758107 14.03038613 17.30727686 16.38350763 15.76171875 19.484375 C13.04134259 21.82474296 10.71516982 21.92187708 7.2265625 22.171875 C3.81940541 21.90886638 2.22214073 20.49990832 0 18 C-1.17794853 14.46615441 -1.13264317 11.59722447 -1.125 7.875 C-1.12886719 5.98394531 -1.12886719 5.98394531 -1.1328125 4.0546875 C-1 1 -1 1 0 0 Z " fill="#7D7E96" transform="translate(440,279)"/>
<path d="M0 0 C0.99 0.33 1.98 0.66 3 1 C3.06058594 2.07121094 3.12117188 3.14242188 3.18359375 4.24609375 C3.26798537 5.64324391 3.35263406 7.04037857 3.4375 8.4375 C3.47681641 9.14455078 3.51613281 9.85160156 3.55664062 10.58007812 C3.47624438 14.08690419 3.47624438 14.08690419 5 17 C8 17.16666667 8 17.16666667 11 17 C12.99616554 15.00383446 12.40983427 11.18298037 12.5625 8.4375 C12.60568359 7.72658203 12.64886719 7.01566406 12.69335938 6.28320312 C12.79971777 4.52238088 12.90038846 2.7612168 13 1 C14.32 1 15.64 1 17 1 C17.08139142 3.39652528 17.14067009 5.79025436 17.1875 8.1875 C17.21263672 8.86103516 17.23777344 9.53457031 17.26367188 10.22851562 C17.32907182 14.69751197 16.75630065 17.45618488 14 21 C10.80766515 22.59616743 7.46538503 22.51466114 4 22 C1.56880377 20.12984906 0.35930827 18.71861655 -1 16 C-1.09773002 13.4676428 -1.13910387 10.96914408 -1.125 8.4375 C-1.12886719 7.73947266 -1.13273437 7.04144531 -1.13671875 6.32226562 C-1.12663994 1.12663994 -1.12663994 1.12663994 0 0 Z " fill="#5B5E81" transform="translate(366,279)"/>
<path d="M0 0 C4.95 0 9.9 0 15 0 C16.83219646 1.83219646 16.23901328 4.75713741 16.31640625 7.22265625 C16.35830078 8.48271484 16.40019531 9.74277344 16.44335938 11.04101562 C16.48317596 12.38150736 16.52288814 13.7220022 16.5625 15.0625 C16.60568042 16.40691523 16.64929456 17.7513166 16.69335938 19.09570312 C16.79985358 22.3970234 16.9018646 25.69842236 17 29 C16.01 29 15.02 29 14 29 C14 19.76 14 10.52 14 1 C9.71 1 5.42 1 1 1 C1 27.07 1 53.14 1 80 C5.62 80 10.24 80 15 80 C15 80.33 15 80.66 15 81 C10.05 81 5.1 81 0 81 C0 54.27 0 27.54 0 0 Z " fill="#90619E" transform="translate(434,171)"/>
<path d="M0 0 C0.99 0.66 1.98 1.32 3 2 C2.67 2.99 2.34 3.98 2 5 C1.31292969 4.89300781 0.62585938 4.78601563 -0.08203125 4.67578125 C-0.98308594 4.55589844 -1.88414062 4.43601562 -2.8125 4.3125 C-3.70582031 4.18488281 -4.59914063 4.05726563 -5.51953125 3.92578125 C-8.03363168 3.77018651 -8.03363168 3.77018651 -9.8046875 5.29296875 C-11.62034705 7.88592045 -11.32081429 9.92018282 -11 13 C-10.01 14.485 -10.01 14.485 -9 16 C-6.25373178 16.13288395 -3.72501077 16.1388213 -1 16 C0.32 16 1.64 16 3 16 C1.25 19.875 1.25 19.875 -1 21 C-5.98109259 21.37593152 -9.05673864 21.1765161 -13 18 C-15.12738138 15.28575479 -15.92909561 13.4760723 -16.4375 10.0625 C-15.87236169 6.10653184 -14.56163859 4.04627291 -12 1 C-7.89112733 -1.55416409 -4.61996514 -1.02665892 0 0 Z " fill="#6B6B8D" transform="translate(704,280)"/>
<path d="M0 0 C5.28 0 10.56 0 16 0 C16.33 1.32 16.66 2.64 17 4 C14.69 4 12.38 4 10 4 C10 9.94 10 15.88 10 22 C8.68 22 7.36 22 6 22 C6 16.06 6 10.12 6 4 C3.69 4 1.38 4 -1 4 C-0.67 2.68 -0.34 1.36 0 0 Z " fill="#717392" transform="translate(421,279)"/>
<path d="M0 0 C0.66 0 1.32 0 2 0 C2 0.66 2 1.32 2 2 C2.66 2 3.32 2 4 2 C5.82866544 6.51787933 6.08440083 9.26806911 5 14 C4.814375 15.11375 4.62875 16.2275 4.4375 17.375 C4.293125 18.24125 4.14875 19.1075 4 20 C3.34 20 2.68 20 2 20 C2 20.66 2 21.32 2 22 C1.34 22 0.68 22 0 22 C0 21.34 0 20.68 0 20 C-0.66 20 -1.32 20 -2 20 C-4.20331023 12.97694864 -4.57302492 8.91500447 -2 2 C-1.34 2 -0.68 2 0 2 C0 1.34 0 0.68 0 0 Z " fill="#EBC977" transform="translate(116,0)"/>
<path d="M0 0 C5.61 0 11.22 0 17 0 C17 0.99 17 1.98 17 3 C15.02 3 13.04 3 11 3 C11 8.61 11 14.22 11 20 C9.68 20.33 8.36 20.66 7 21 C7 15.06 7 9.12 7 3 C4.69 3 2.38 3 0 3 C0 2.01 0 1.02 0 0 Z " fill="#5C5F85" transform="translate(651,280)"/>
<path d="M0 0 C5.61 0 11.22 0 17 0 C17 0.99 17 1.98 17 3 C15.02 3 13.04 3 11 3 C11 8.61 11 14.22 11 20 C9.68 20.33 8.36 20.66 7 21 C7 15.06 7 9.12 7 3 C4.69 3 2.38 3 0 3 C0 2.01 0 1.02 0 0 Z " fill="#5A5E83" transform="translate(459,280)"/>
<path d="M0 0 C4.29 0 8.58 0 13 0 C13 0.66 13 1.32 13 2 C9.37 2 5.74 2 2 2 C2 4.31 2 6.62 2 9 C5.3 9 8.6 9 12 9 C12 9.66 12 10.32 12 11 C8.7 11 5.4 11 2 11 C2 13.31 2 15.62 2 18 C5.63 18 9.26 18 13 18 C13 18.66 13 19.32 13 20 C8.71 20 4.42 20 0 20 C0 13.4 0 6.8 0 0 Z " fill="#1C204F" transform="translate(613,280)"/>
<path d="M0 0 C0.66 0 1.32 0 2 0 C2 6.6 2 13.2 2 20 C1.34 20 0.68 20 0 20 C0 17.03 0 14.06 0 11 C-3.96 11 -7.92 11 -12 11 C-12 13.97 -12 16.94 -12 20 C-12.66 20 -13.32 20 -14 20 C-14 13.73 -14 7.46 -14 1 C-13.34 1 -12.68 1 -12 1 C-12 3.64 -12 6.28 -12 9 C-8.04 9 -4.08 9 0 9 C0 6.03 0 3.06 0 0 Z " fill="#161B42" transform="translate(725,280)"/>
<path d="M0 0 C1.32 0 2.64 0 4 0 C4.5 2.5625 4.5 2.5625 4 6 C0.76797418 9.95561369 -2.55252191 12.61228265 -7.5 13.9375 C-8.325 13.958125 -9.15 13.97875 -10 14 C-9.34 12.02 -8.68 10.04 -8 8 C-7.34 8 -6.68 8 -6 8 C-6 6.68 -6 5.36 -6 4 C-5.34 4 -4.68 4 -4 4 C-4 3.34 -4 2.68 -4 2 C-2.68 2 -1.36 2 0 2 C0 1.34 0 0.68 0 0 Z " fill="#F1DA98" transform="translate(142,20)"/>
<path d="M0 0 C1.32 0 2.64 0 4 0 C4 0.66 4 1.32 4 2 C5.32 2 6.64 2 8 2 C8 2.66 8 3.32 8 4 C8.66 4 9.32 4 10 4 C10 5.32 10 6.64 10 8 C10.66 8 11.32 8 12 8 C12 9.32 12 10.64 12 12 C12.66 12.33 13.32 12.66 14 13 C13 14 13 14 10.4375 14.0625 C9.633125 14.041875 8.82875 14.02125 8 14 C8 13.34 8 12.68 8 12 C7.34 12 6.68 12 6 12 C6 11.34 6 10.68 6 10 C4.68 9.34 3.36 8.68 2 8 C2 7.34 2 6.68 2 6 C1.34 6 0.68 6 0 6 C0 4.02 0 2.04 0 0 Z " fill="#E0BF70" transform="translate(88,20)"/>
<path d="M0 0 C0.33 0 0.66 0 1 0 C1 13.53 1 27.06 1 41 C-3.95 41 -8.9 41 -14 41 C-14.33 39.68 -14.66 38.36 -15 37 C-16.3921875 37.9590625 -16.3921875 37.9590625 -17.8125 38.9375 C-22.37046936 41.88677429 -25.35300911 42.11531674 -30.6875 42.0625 C-32.45673828 42.04896484 -32.45673828 42.04896484 -34.26171875 42.03515625 C-35.16535156 42.02355469 -36.06898438 42.01195312 -37 42 C-37 41.67 -37 41.34 -37 41 C-33.04 41 -29.08 41 -25 41 C-25 40.34 -25 39.68 -25 39 C-20.9811485 37.18757677 -17.38889325 35.66498383 -13 35 C-13 36.65 -13 38.3 -13 40 C-8.71 40 -4.42 40 0 40 C0 26.8 0 13.6 0 0 Z " fill="#7477A0" transform="translate(429,105)"/>
<path d="M0 0 C4.29 0 8.58 0 13 0 C13 0.33 13 0.66 13 1 C9.37 1 5.74 1 2 1 C2 3.31 2 5.62 2 8 C5.3 8 8.6 8 12 8 C12 8.66 12 9.32 12 10 C8.7 10 5.4 10 2 10 C2 12.31 2 14.62 2 17 C5.96 17 9.92 17 14 17 C14 17.66 14 18.32 14 19 C9.38 19 4.76 19 0 19 C0 12.73 0 6.46 0 0 Z " fill="#131846" transform="translate(311,281)"/>
<path d="M0 0 C4.77696149 0.06003363 8.83729162 0.71229162 12.3125 4.1875 C12.58241906 6.87589385 12.39987357 9.47891936 12.3125 12.1875 C11.9825 12.1875 11.6525 12.1875 11.3125 12.1875 C11.3125 9.8775 11.3125 7.5675 11.3125 5.1875 C10.6525 5.1875 9.9925 5.1875 9.3125 5.1875 C8.9825 5.8475 8.6525 6.5075 8.3125 7.1875 C8.3125 6.5275 8.3125 5.8675 8.3125 5.1875 C7.6525 4.8575 6.9925 4.5275 6.3125 4.1875 C6.9725 4.1875 7.6325 4.1875 8.3125 4.1875 C8.3125 3.5275 8.3125 2.8675 8.3125 2.1875 C4.6825 2.1875 1.0525 2.1875 -2.6875 2.1875 C-2.3575 6.4775 -2.0275 10.7675 -1.6875 15.1875 C-1.3575 15.1875 -1.0275 15.1875 -0.6875 15.1875 C-0.6875 17.4975 -0.6875 19.8075 -0.6875 22.1875 C-2.0075 21.8575 -3.3275 21.5275 -4.6875 21.1875 C-4.71638146 17.87501813 -4.73425799 14.56256833 -4.75 11.25 C-4.75837891 10.30447266 -4.76675781 9.35894531 -4.77539062 8.38476562 C-4.77861328 7.48564453 -4.78183594 6.58652344 -4.78515625 5.66015625 C-4.79039307 4.82750244 -4.79562988 3.99484863 -4.80102539 3.13696289 C-4.59481991 -0.40400645 -3.69328688 0.18779425 0 0 Z " fill="#8B8CA8" transform="translate(273.6875,278.8125)"/>
<path d="M0 0 C0.99 0 1.98 0 3 0 C3 7.26 3 14.52 3 22 C1.68 21.67 0.36 21.34 -1 21 C-1.02888146 17.68751813 -1.04675799 14.37506833 -1.0625 11.0625 C-1.07087891 10.11697266 -1.07925781 9.17144531 -1.08789062 8.19726562 C-1.09111328 7.29814453 -1.09433594 6.39902344 -1.09765625 5.47265625 C-1.10289307 4.64000244 -1.10812988 3.80734863 -1.11352539 2.94946289 C-1 1 -1 1 0 0 Z " fill="#696C8F" transform="translate(357,279)"/>
<path d="M0 0 C1.375 2.5625 1.375 2.5625 2 5 C0.68 6.32 -0.64 7.64 -2 9 C-2 8.34 -2 7.68 -2 7 C-3.97536745 7.34786708 -3.97536745 7.34786708 -6 8 C-6.33 8.66 -6.66 9.32 -7 10 C-6.01 10 -5.02 10 -4 10 C-4.33 10.66 -4.66 11.32 -5 12 C-5.99 12.33 -6.98 12.66 -8 13 C-10.63529412 5.91764706 -10.63529412 5.91764706 -10 2 C-6.93533093 -1.53615662 -4.29182871 -1.49280999 0 0 Z M-6 3 C-5.67 3.99 -5.34 4.98 -5 6 C-4.01 5.67 -3.02 5.34 -2 5 C-2 4.34 -2 3.68 -2 3 C-3.32 3 -4.64 3 -6 3 Z " fill="#68698C" transform="translate(595,280)"/>
<path d="M0 0 C0.99 0.33 1.98 0.66 3 1 C3 7.6 3 14.2 3 21 C1.68 21.33 0.36 21.66 -1 22 C-1.02887814 18.52085059 -1.04675687 15.04173169 -1.0625 11.5625 C-1.07087891 10.56927734 -1.07925781 9.57605469 -1.08789062 8.55273438 C-1.09111328 7.60849609 -1.09433594 6.66425781 -1.09765625 5.69140625 C-1.10289307 4.81685791 -1.10812988 3.94230957 -1.11352539 3.04125977 C-1 1 -1 1 0 0 Z " fill="#6B6C8E" transform="translate(524,279)"/>
<path d="M0 0 C3.98355132 -0.02493556 7.96707167 -0.04297028 11.95068359 -0.05493164 C13.96323241 -0.06236421 15.97575949 -0.07507829 17.98828125 -0.08789062 C24.42163371 -0.10405483 30.6439839 -0.02960975 37 1 C37 1.33 37 1.66 37 2 C31.06 2.495 31.06 2.495 25 3 C25 2.34 25 1.68 25 1 C17.08 1 9.16 1 1 1 C1 4.3 1 7.6 1 11 C8.92 11 16.84 11 25 11 C25 11.33 25 11.66 25 12 C16.75 12 8.5 12 0 12 C0 8.04 0 4.08 0 0 Z " fill="#9DA0B4" transform="translate(0,271)"/>
<path d="M0 0 C0.33 0 0.66 0 1 0 C1.13277344 0.56589844 1.26554688 1.13179688 1.40234375 1.71484375 C1.57894531 2.44832031 1.75554688 3.18179687 1.9375 3.9375 C2.19853516 5.03384766 2.19853516 5.03384766 2.46484375 6.15234375 C2.83887569 7.99969898 2.83887569 7.99969898 4 9 C6.67540249 9.04385906 9.3267852 9.04463624 12 9 C13.32 9 14.64 9 16 9 C14.25 12.875 14.25 12.875 12 14 C7.02932218 14.3751455 3.94848498 14.15878799 0 11 C-1.3125 8.8125 -1.3125 8.8125 -2 7 C-1.34 7 -0.68 7 0 7 C0 4.69 0 2.38 0 0 Z " fill="#5A5B7E" transform="translate(691,287)"/>
<path d="M0 0 C3.63 0 7.26 0 11 0 C11 0.33 11 0.66 11 1 C8.03 1 5.06 1 2 1 C2 6.28 2 11.56 2 17 C5.3 17 8.6 17 12 17 C11.67 17.66 11.34 18.32 11 19 C7.37 19 3.74 19 0 19 C0 12.73 0 6.46 0 0 Z " fill="#1E2055" transform="translate(632,281)"/>
<path d="M0 0 C0.99 0.66 1.98 1.32 3 2 C2.67 2.99 2.34 3.98 2 5 C0.98679687 4.83951172 0.98679687 4.83951172 -0.046875 4.67578125 C-0.93890625 4.55589844 -1.8309375 4.43601562 -2.75 4.3125 C-3.63171875 4.18488281 -4.5134375 4.05726563 -5.421875 3.92578125 C-8.55676517 4.01602809 -9.71823587 4.92615363 -12 7 C-12.33 6.34 -12.66 5.68 -13 5 C-13.99 5.495 -13.99 5.495 -15 6 C-13.96096588 2.98680106 -12.99930443 1.99953089 -10.3125 0.1875 C-6.34979926 -1.23309083 -4.05719388 -0.99516076 0 0 Z " fill="#626388" transform="translate(569,280)"/>
<path d="M0 0 C3.63 0 7.26 0 11 0 C11 0.66 11 1.32 11 2 C8.36 2.33 5.72 2.66 3 3 C3.020625 3.94875 3.04125 4.8975 3.0625 5.875 C3 9 3 9 2 11 C3.98 11 5.96 11 8 11 C8 11.33 8 11.66 8 12 C6.02 12.33 4.04 12.66 2 13 C1.67 14.98 1.34 16.96 1 19 C0.67 19 0.34 19 0 19 C0 12.73 0 6.46 0 0 Z " fill="#3C3F67" transform="translate(291,281)"/>
<path d="M0 0 C0.66 0 1.32 0 2 0 C2.33 9.24 2.66 18.48 3 28 C2.01 28 1.02 28 0 28 C0 18.76 0 9.52 0 0 Z " fill="#AF9AB3" transform="translate(448,172)"/>
<path d="M0 0 C2.3125 -0.3125 2.3125 -0.3125 5 0 C6.8125 2.5 6.8125 2.5 8 5 C8.33 4.34 8.66 3.68 9 3 C9.99 3 10.98 3 12 3 C12 4.65 12 6.3 12 8 C11.34 8 10.68 8 10 8 C10 8.66 10 9.32 10 10 C9.01 10 8.02 10 7 10 C7 9.34 7 8.68 7 8 C5.68 7.34 4.36 6.68 3 6 C3 5.01 3 4.02 3 3 C2.01 3 1.02 3 0 3 C0 2.01 0 1.02 0 0 Z " fill="#53567C" transform="translate(588,287)"/>
<path d="M0 0 C0.99 0 1.98 0 3 0 C3 5.61 3 11.22 3 17 C2.01 17.33 1.02 17.66 0 18 C0 12.06 0 6.12 0 0 Z " fill="#494D74" transform="translate(454,279)"/>
<path d="M0 0 C5.841744 -0.35050464 9.8531808 -0.16727335 15 3 C11.64672361 5.23551759 11.09256343 5.17283528 7.3125 4.625 C6.10013672 4.45871094 6.10013672 4.45871094 4.86328125 4.2890625 C3.94095703 4.14597656 3.94095703 4.14597656 3 4 C3 6.64 3 9.28 3 12 C5.31 12 7.62 12 10 12 C10 12.33 10 12.66 10 13 C7.36 13 4.72 13 2 13 C2 9.7 2 6.4 2 3 C2.99 2.67 3.98 2.34 5 2 C3.35 1.67 1.7 1.34 0 1 C0 0.67 0 0.34 0 0 Z " fill="#8E90AB" transform="translate(503,279)"/>
<path d="M0 0 C0.33 0 0.66 0 1 0 C1 1.98 1 3.96 1 6 C1.66 6 2.32 6 3 6 C3 4.35 3 2.7 3 1 C3.33 1 3.66 1 4 1 C4.13277344 1.56589844 4.26554687 2.13179688 4.40234375 2.71484375 C4.57894531 3.44832031 4.75554687 4.18179687 4.9375 4.9375 C5.19853516 6.03384766 5.19853516 6.03384766 5.46484375 7.15234375 C5.83887569 8.99969898 5.83887569 8.99969898 7 10 C9.32817964 10.36760731 11.6618385 10.70241581 14 11 C14 11.33 14 11.66 14 12 C11.69 12 9.38 12 7 12 C7 12.66 7 13.32 7 14 C3.61768919 12.60042311 1.72071358 11.26935579 0 8 C-0.24493747 5.27963064 -0.13708782 2.74175634 0 0 Z " fill="#656885" transform="translate(477,286)"/>
<path d="M0 0 C0.07347656 1.03060547 0.07347656 1.03060547 0.1484375 2.08203125 C0.22320313 2.98308594 0.29796875 3.88414062 0.375 4.8125 C0.44460938 5.70582031 0.51421875 6.59914063 0.5859375 7.51953125 C0.86645036 10.24398499 0.86645036 10.24398499 3 13 C1.68 13.33 0.36 13.66 -1 14 C-3.58556706 11.41443294 -4.25845081 9.4362251 -4.375 5.875 C-4.25125 4.59625 -4.1275 3.3175 -4 2 C-1 0 -1 0 0 0 Z " fill="#5A5C81" transform="translate(557,284)"/>
<path d="M0 0 C0.99 0 1.98 0 3 0 C3.05383848 2.45862401 3.09359038 4.9160755 3.125 7.375 C3.14175781 8.07367188 3.15851563 8.77234375 3.17578125 9.4921875 C3.19344267 11.32897486 3.10303261 13.16601963 3 15 C2.34 15.66 1.68 16.32 1 17 C0 16 0 16 -0.09765625 12.40234375 C-0.0909822 10.91403133 -0.07902183 9.42573568 -0.0625 7.9375 C-0.05798828 7.17888672 -0.05347656 6.42027344 -0.04882812 5.63867188 C-0.0370068 3.75908129 -0.01907078 1.87953101 0 0 Z " fill="#4C4F7B" transform="translate(380,280)"/>
<path d="M0 0 C0.33 0 0.66 0 1 0 C1.99263429 9.35912329 2.10731538 18.60394198 2 28 C2.66 28.33 3.32 28.66 4 29 C2.02 29.99 2.02 29.99 0 31 C0 20.77 0 10.54 0 0 Z " fill="#BEA7C3" transform="translate(126,267)"/>
<path d="M0 0 C0.99 0 1.98 0 3 0 C3 6.6 3 13.2 3 20 C2.34 20 1.68 20 1 20 C1.02320313 19.01257813 1.04640625 18.02515625 1.0703125 17.0078125 C1.08835937 15.72648437 1.10640625 14.44515625 1.125 13.125 C1.14820313 11.84882813 1.17140625 10.57265625 1.1953125 9.2578125 C1.35641524 5.91406662 1.35641524 5.91406662 -1 4 C-0.625 1.875 -0.625 1.875 0 0 Z " fill="#1C1F48" transform="translate(406,280)"/>
<path d="M0 0 C0.99 0 1.98 0 3 0 C3 4.62 3 9.24 3 14 C2.01 14 1.02 14 0 14 C0 9.38 0 4.76 0 0 Z " fill="#4E517B" transform="translate(439,280)"/>
<path d="M0 0 C0.99 1.32 1.98 2.64 3 4 C2.01 4.495 2.01 4.495 1 5 C0.06606559 6.655611 -0.80102783 8.34950522 -1.625 10.0625 C-2.07101562 10.98160156 -2.51703125 11.90070313 -2.9765625 12.84765625 C-3.31429688 13.55792969 -3.65203125 14.26820313 -4 15 C-4.33 14.01 -4.66 13.02 -5 12 C-5.66 11.67 -6.32 11.34 -7 11 C-4.69 7.37 -2.38 3.74 0 0 Z " fill="#65688A" transform="translate(405,282)"/>
<path d="M0 0 C0.99 0.33 1.98 0.66 3 1 C2.67 6.94 2.34 12.88 2 19 C1.34 19 0.68 19 0 19 C0 12.73 0 6.46 0 0 Z " fill="#151953" transform="translate(330,281)"/>
<path d="M0 0 C2.62187494 1.04874998 3.79371361 1.64931313 5.25 4.125 C5.4975 4.74375 5.745 5.3625 6 6 C5.01 6 4.02 6 3 6 C3 5.34 3 4.68 3 4 C-0.43338516 5.20632452 -2.50364585 6.38477184 -5 9 C-5.66 9 -6.32 9 -7 9 C-6.82374165 6.62051228 -6.30280227 5.29774151 -4.59765625 3.62109375 C-3.09350908 2.37884514 -1.54870149 1.18623944 0 0 Z " fill="#55597D" transform="translate(27,88)"/>
<path d="M0 0 C1.32 0.66 2.64 1.32 4 2 C3.401875 2.2475 2.80375 2.495 2.1875 2.75 C-0.39231944 4.22418254 -1.5815864 5.38713283 -3 8 C-2.77802187 10.6984589 -2.77802187 10.6984589 -2 13 C-3.65 11.35 -5.3 9.7 -7 8 C-5.50902342 4.2047869 -3.24299151 2.38957269 0 0 Z " fill="#626689" transform="translate(7,114)"/>
<path d="M0 0 C0.99 0.33 1.98 0.66 3 1 C2.34 1 1.68 1 1 1 C-0.81975482 6.12839994 1.1400901 10.17684382 3 15 C-0.47733117 13.84088961 -0.71562011 13.31738459 -2.3125 10.1875 C-2.67988281 9.50042969 -3.04726563 8.81335938 -3.42578125 8.10546875 C-4 6 -4 6 -3.10546875 3.73828125 C-2.74066406 3.16464844 -2.37585938 2.59101563 -2 2 C-1.34 2 -0.68 2 0 2 C0 1.34 0 0.68 0 0 Z " fill="#96709F" transform="translate(680,196)"/>
<path d="M0 0 C-0.33 0.99 -0.66 1.98 -1 3 C-4.67568464 3.91892116 -6.16380575 3.95904856 -10 3 C-10 8.94 -10 14.88 -10 21 C-10.33 21 -10.66 21 -11 21 C-11.33 15.06 -11.66 9.12 -12 3 C-4.125 -0.375 -4.125 -0.375 0 0 Z " fill="#E5C7E9" transform="translate(167,124)"/>
<path d="M0 0 C0.33 0 0.66 0 1 0 C1 1.98 1 3.96 1 6 C2.62752231 5.74476126 4.25203196 5.47025506 5.875 5.1875 C7.23238281 4.96126953 7.23238281 4.96126953 8.6171875 4.73046875 C11.34412478 4.16948699 11.34412478 4.16948699 13 1 C13.66 2.65 14.32 4.3 15 6 C13.68 6.99 12.36 7.98 11 9 C10.34 8.67 9.68 8.34 9 8 C7.46331135 7.77532169 5.92031946 7.59203195 4.375 7.4375 C3.55773437 7.35371094 2.74046875 7.26992188 1.8984375 7.18359375 C1.27195312 7.12300781 0.64546875 7.06242187 0 7 C0 4.69 0 2.38 0 0 Z " fill="#9192AB" transform="translate(634,291)"/>
<path d="M0 0 C0.33 0.99 0.66 1.98 1 3 C0.67 3.66 0.34 4.32 0 5 C-0.66 5 -1.32 5 -2 5 C-2 7.31 -2 9.62 -2 12 C-2.99 11.67 -3.98 11.34 -5 11 C-5.17615457 7.12459955 -5.28341107 4.24484731 -3 1 C-2.01 0.67 -1.02 0.34 0 0 Z " fill="#4E4E74" transform="translate(693,282)"/>
<path d="M0 0 C-0.36712972 2.71675995 -0.72744599 4.61063713 -2.3125 6.875 C-4 8 -4 8 -6.1875 7.6875 C-6.785625 7.460625 -7.38375 7.23375 -8 7 C-6.4365884 2.43002763 -5.27390657 0 0 0 Z " fill="#EDD185" transform="translate(140,26)"/>
<path d="M0 0 C-1.75 3.875 -1.75 3.875 -4 5 C-6.6723621 5.13415472 -9.32250488 5.04318541 -12 5 C-12 4.01 -12 3.02 -12 2 C-10.37548581 1.66430703 -8.75037083 1.3315204 -7.125 1 C-6.22007812 0.814375 -5.31515625 0.62875 -4.3828125 0.4375 C-2 0 -2 0 0 0 Z " fill="#505377" transform="translate(496,296)"/>
<path d="M0 0 C1.32 0.33 2.64 0.66 4 1 C4.33 2.65 4.66 4.3 5 6 C5.66 6 6.32 6 7 6 C7 7.32 7 8.64 7 10 C6.01 10 5.02 10 4 10 C0 3.375 0 3.375 0 0 Z " fill="#585C82" transform="translate(393,288)"/>
<path d="M0 0 C2.97 0.33 5.94 0.66 9 1 C9 1.33 9 1.66 9 2 C6.69 2 4.38 2 2 2 C2.02320313 2.69867188 2.04640625 3.39734375 2.0703125 4.1171875 C2.08835937 5.02726562 2.10640625 5.93734375 2.125 6.875 C2.14820313 7.77992188 2.17140625 8.68484375 2.1953125 9.6171875 C2 12 2 12 0 14 C0 9.38 0 4.76 0 0 Z " fill="#171A49" transform="translate(503,280)"/>
<path d="M0 0 C0.66 0 1.32 0 2 0 C1.03259368 3.11719813 -0.00765945 4.00476588 -2.8125 5.75 C-8.25583752 7.8925903 -14.26027645 7.23304141 -20 7 C-20 6.67 -20 6.34 -20 6 C-16.04 6 -12.08 6 -8 6 C-8 5.34 -8 4.68 -8 4 C-6.865625 3.525625 -5.73125 3.05125 -4.5625 2.5625 C-1.24259834 1.36377917 -1.24259834 1.36377917 0 0 Z " fill="#6B6D8A" transform="translate(412,140)"/>
<path d="M0 0 C2.1640625 0.37109375 2.1640625 0.37109375 4 1 C3.43410156 1.55429688 2.86820312 2.10859375 2.28515625 2.6796875 C1.55167969 3.40414062 0.81820313 4.12859375 0.0625 4.875 C-0.66839844 5.59429687 -1.39929688 6.31359375 -2.15234375 7.0546875 C-4.05667999 8.87027192 -4.05667999 8.87027192 -5 11 C-5.66 11 -6.32 11 -7 11 C-5.73569073 6.05770013 -4.03993846 3.17423736 0 0 Z " fill="#414671" transform="translate(476,74)"/>
<path d="M0 0 C0.33 0 0.66 0 1 0 C1.33 6.27 1.66 12.54 2 19 C-1.41099168 19 -4.63088314 18.50854594 -8 18 C-8 17.67 -8 17.34 -8 17 C-5.69 16.34 -3.38 15.68 -1 15 C-0.67 10.05 -0.34 5.1 0 0 Z " fill="#9EA0B1" transform="translate(379,280)"/>
<path d="M0 0 C1.98 0.99 1.98 0.99 4 2 C4 3.65 4 5.3 4 7 C3.34 6.67 2.68 6.34 2 6 C1.67 10.62 1.34 15.24 1 20 C0.67 20 0.34 20 0 20 C0 13.4 0 6.8 0 0 Z " fill="#212453" transform="translate(389,280)"/>
<path d="M0 0 C0.33 0 0.66 0 1 0 C1.16781295 2.60409745 1.33429651 5.2082682 1.5 7.8125 C1.54769531 8.55048828 1.59539062 9.28847656 1.64453125 10.04882812 C1.83390613 13.03824588 2 16.00374574 2 19 C-1.11227195 19 -3.94152152 18.54372951 -7 18 C-7 17.67 -7 17.34 -7 17 C-5.02 17 -3.04 17 -1 17 C-0.67 11.39 -0.34 5.78 0 0 Z " fill="#ABACBD" transform="translate(453,280)"/>
<path d="M0 0 C0.66 0 1.32 0 2 0 C2.1953125 6.0546875 2.1953125 6.0546875 2 8 C0 10 0 10 -2.3828125 10.1953125 C-3.28773438 10.17210937 -4.19265625 10.14890625 -5.125 10.125 C-6.49011719 10.09792969 -6.49011719 10.09792969 -7.8828125 10.0703125 C-8.58148438 10.04710937 -9.28015625 10.02390625 -10 10 C-10 9.67 -10 9.34 -10 9 C-7.03 9 -4.06 9 -1 9 C-1 8.34 -1 7.68 -1 7 C-1.66 6.67 -2.32 6.34 -3 6 C-2.34 6 -1.68 6 -1 6 C-0.67 4.02 -0.34 2.04 0 0 Z " fill="#52567D" transform="translate(283,284)"/>
<path d="M0 0 C3.3 0 6.6 0 10 0 C9.67 0.66 9.34 1.32 9 2 C9.66 2.66 10.32 3.32 11 4 C9.741875 4.04125 8.48375 4.0825 7.1875 4.125 C6.47980469 4.14820313 5.77210938 4.17140625 5.04296875 4.1953125 C3 4 3 4 0 2 C0 1.34 0 0.68 0 0 Z " fill="#7A7C96" transform="translate(557,297)"/>
<path d="M0 0 C0 0.33 0 0.66 0 1 C-1.8871875 1.12375 -1.8871875 1.12375 -3.8125 1.25 C-7.31302273 1.63700664 -7.31302273 1.63700664 -9.875 4.0625 C-10.24625 4.701875 -10.6175 5.34125 -11 6 C-11.66 6 -12.32 6 -13 6 C-13 7.98 -13 9.96 -13 12 C-13.33 12 -13.66 12 -14 12 C-14.3183515 7.9410184 -14.39717586 5.6525032 -12.25 2.125 C-8.16850305 -1.72974712 -5.33766042 -1.09179418 0 0 Z " fill="#A67FB2" transform="translate(348,168)"/>
<path d="M0 0 C1.98 0.99 1.98 0.99 4 2 C4 2.99 4 3.98 4 5 C3.01 5 2.02 5 1 5 C1 9.95 1 14.9 1 20 C0.67 20 0.34 20 0 20 C0 13.4 0 6.8 0 0 Z " fill="#1D1F54" transform="translate(533,280)"/>
<path d="M0 0 C0.33 0 0.66 0 1 0 C1.19401633 1.81181405 1.38004375 3.62448532 1.5625 5.4375 C1.66691406 6.44683594 1.77132812 7.45617187 1.87890625 8.49609375 C1.93884766 9.73552734 1.93884766 9.73552734 2 11 C1.67 11.33 1.34 11.66 1 12 C0.76712992 13.68183948 0.58735834 15.3712416 0.4375 17.0625 C0.31181641 18.44115234 0.31181641 18.44115234 0.18359375 19.84765625 C0.12300781 20.55792969 0.06242187 21.26820313 0 22 C-1.32 21.34 -2.64 20.68 -4 20 C-3.01 20 -2.02 20 -1 20 C-1.01160156 19.31035156 -1.02320312 18.62070312 -1.03515625 17.91015625 C-1.09342124 11.84227348 -0.78903948 6.01642604 0 0 Z " fill="#8487A5" transform="translate(98,252)"/>
<path d="M0 0 C0.99 0 1.98 0 3 0 C1.55873214 3.36295835 -0.20592655 5.62927102 -3 8 C-3.99 8 -4.98 8 -6 8 C-6 7.34 -6 6.68 -6 6 C-5.34 6 -4.68 6 -4 6 C-3.34 4.68 -2.68 3.36 -2 2 C-1.34 2 -0.68 2 0 2 C0 1.34 0 0.68 0 0 Z " fill="#81558C" transform="translate(618,198)"/>
<path d="M0 0 C1.27351308 2.54702616 0.80191925 3.4282945 0.0625 6.125 C-0.13214844 6.84945312 -0.32679687 7.57390625 -0.52734375 8.3203125 C-0.76130859 9.15175781 -0.76130859 9.15175781 -1 10 C-1.66 10 -2.32 10 -3 10 C-3.66 7.69 -4.32 5.38 -5 3 C-4.34 3 -3.68 3 -3 3 C-1.37485532 1.54166642 -1.37485532 1.54166642 0 0 Z " fill="#6E6D8D" transform="translate(110,140)"/>
<path d="M0 0 C-0.66 0 -1.32 0 -2 0 C-2.33 0.66 -2.66 1.32 -3 2 C-4.8125 4.1875 -4.8125 4.1875 -7 6 C-9.25 5.75 -9.25 5.75 -11 5 C-11 4.34 -11 3.68 -11 3 C-9.73581754 2.30034557 -8.46334598 1.61565237 -7.1875 0.9375 C-6.47980469 0.55464844 -5.77210937 0.17179687 -5.04296875 -0.22265625 C-3 -1 -3 -1 0 0 Z " fill="#606388" transform="translate(47,63)"/>
<path d="M0 0 C0.33 0.66 0.66 1.32 1 2 C1.99 2 2.98 2 4 2 C4.33 1.34 4.66 0.68 5 0 C5.66 0.66 6.32 1.32 7 2 C6.625 4.125 6.625 4.125 6 6 C5.34 6 4.68 6 4 6 C4 5.34 4 4.68 4 4 C2.68 4.33 1.36 4.66 0 5 C-0.66 4.01 -1.32 3.02 -2 2 C-1.34 2 -0.68 2 0 2 C0 1.34 0 0.68 0 0 Z " fill="#7B7D9C" transform="translate(594,295)"/>
<path d="M0 0 C-0.33 0.99 -0.66 1.98 -1 3 C-1.99 3 -2.98 3 -4 3 C-4.28875 3.598125 -4.5775 4.19625 -4.875 4.8125 C-6 7 -6 7 -8 10 C-8.66 10 -9.32 10 -10 10 C-8.71596412 5.50587442 -5.23012555 0 0 0 Z " fill="#505379" transform="translate(387,113)"/>
<path d="M0 0 C1.27230469 0.00902344 2.54460937 0.01804687 3.85546875 0.02734375 C5.31919922 0.04474609 5.31919922 0.04474609 6.8125 0.0625 C6.8125 0.3925 6.8125 0.7225 6.8125 1.0625 C5.36617188 1.26166016 5.36617188 1.26166016 3.890625 1.46484375 C1.99570312 1.72974609 1.99570312 1.72974609 0.0625 2 C-1.19046875 2.17402344 -2.4434375 2.34804687 -3.734375 2.52734375 C-6.28732593 2.92299338 -8.7061291 3.36696422 -11.1875 4.0625 C-10.8575 3.0725 -10.5275 2.0825 -10.1875 1.0625 C-6.62704823 -0.12431726 -3.74941663 -0.03439832 0 0 Z " fill="#7F81A2" transform="translate(398.1875,98.9375)"/>
<path d="M0 0 C0.66 0 1.32 0 2 0 C2 1.32 2 2.64 2 4 C2.66 4.33 3.32 4.66 4 5 C3 6 3 6 0.4375 6.0625 C-0.7690625 6.0315625 -0.7690625 6.0315625 -2 6 C-2 5.34 -2 4.68 -2 4 C-2.66 4 -3.32 4 -4 4 C-4 3.34 -4 2.68 -4 2 C-2.68 2 -1.36 2 0 2 C0 1.34 0 0.68 0 0 Z " fill="#EADBAB" transform="translate(98,28)"/>
<path d="M0 0 C0.99 0.33 1.98 0.66 3 1 C1.25 4.875 1.25 4.875 -1 6 C-3.3329866 6.04022391 -5.66706666 6.04320247 -8 6 C-8 5.67 -8 5.34 -8 5 C-6.35 5 -4.7 5 -3 5 C-3 4.34 -3 3.68 -3 3 C-2.34 3 -1.68 3 -1 3 C-0.67 2.01 -0.34 1.02 0 0 Z " fill="#7E7F99" transform="translate(704,295)"/>
<path d="M0 0 C-0.78375 0.0825 -1.5675 0.165 -2.375 0.25 C-5.05112253 0.73322067 -5.05112253 0.73322067 -6.25 2.625 C-7.22686916 5.71841899 -7.6288066 8.78299058 -8 12 C-8.33 12 -8.66 12 -9 12 C-9.33 8.7 -9.66 5.4 -10 2 C-3.375 -1.125 -3.375 -1.125 0 0 Z " fill="#8B8DA3" transform="translate(600,72)"/>
<path d="M0 0 C1.32 0 2.64 0 4 0 C4 0.99 4 1.98 4 3 C4.66 3.33 5.32 3.66 6 4 C5.34 4 4.68 4 4 4 C4 4.66 4 5.32 4 6 C2.68 6 1.36 6 0 6 C0 4.02 0 2.04 0 0 Z " fill="#DFC78D" transform="translate(88,20)"/>
<path d="M0 0 C0.66 0 1.32 0 2 0 C2 0.66 2 1.32 2 2 C2.66 2 3.32 2 4 2 C3.67 3.65 3.34 5.3 3 7 C2.67 6.01 2.34 5.02 2 4 C1.34 4 0.68 4 0 4 C-0.33 4.99 -0.66 5.98 -1 7 C-1.33 5.35 -1.66 3.7 -2 2 C-1.34 2 -0.68 2 0 2 C0 1.34 0 0.68 0 0 Z " fill="#E8D292" transform="translate(116,0)"/>
<path d="M0 0 C3.3 0 6.6 0 10 0 C9.01 1.485 9.01 1.485 8 3 C4.92078868 3.25660094 2.78863007 3.39431504 0 2 C0 1.34 0 0.68 0 0 Z " fill="#4B4F74" transform="translate(443,298)"/>
<path d="M0 0 C0.99 0 1.98 0 3 0 C3 1.32 3 2.64 3 4 C2.34 4 1.68 4 1 4 C1 5.65 1 7.3 1 9 C0.34 9 -0.32 9 -1 9 C-1.09765625 2.84765625 -1.09765625 2.84765625 -1 1 C-0.67 0.67 -0.34 0.34 0 0 Z " fill="#363967" transform="translate(479,283)"/>
<path d="M0 0 C0.99 0 1.98 0 3 0 C4.5912689 4.873261 5.21192221 8.80790596 5 14 C4.67 14 4.34 14 4 14 C4 12.02 4 10.04 4 8 C3.34 8 2.68 8 2 8 C1.34 5.36 0.68 2.72 0 0 Z " fill="#916B9D" transform="translate(161,57)"/>
<path d="M0 0 C2 1.8125 2 1.8125 4 4 C4 4.99 4 5.98 4 7 C2.1875 6.8125 2.1875 6.8125 0 6 C-1.75 3.4375 -1.75 3.4375 -3 1 C-2.01 0.67 -1.02 0.34 0 0 Z " fill="#777996" transform="translate(515,294)"/>
<path d="M0 0 C0.66 1.32 1.32 2.64 2 4 C0.68 5.32 -0.64 6.64 -2 8 C-2 7.34 -2 6.68 -2 6 C-3.32 6.33 -4.64 6.66 -6 7 C-5.67 6.01 -5.34 5.02 -5 4 C-4.34 4 -3.68 4 -3 4 C-1.36323743 2.0399719 -1.36323743 2.0399719 0 0 Z " fill="#9D9DB8" transform="translate(595,281)"/>
<path d="M0 0 C0.33 0 0.66 0 1 0 C1 1.98 1 3.96 1 6 C1.66 6 2.32 6 3 6 C3 4.35 3 2.7 3 1 C3.33 1 3.66 1 4 1 C4.33 3.64 4.66 6.28 5 9 C4.01 8.67 3.02 8.34 2 8 C1.67 8.66 1.34 9.32 1 10 C-0.60725635 6.78548731 -0.05748185 3.56387464 0 0 Z " fill="#9294A9" transform="translate(477,286)"/>
<path d="M0 0 C0.66 0 1.32 0 2 0 C2.33 2.97 2.66 5.94 3 9 C2.01 8.67 1.02 8.34 0 8 C0 5.36 0 2.72 0 0 Z " fill="#32355F" transform="translate(647,286)"/>
<path d="M0 0 C0.66 0.33 1.32 0.66 2 1 C0.8125 3.4375 0.8125 3.4375 -1 6 C-3.6875 6.8125 -3.6875 6.8125 -6 7 C-4.02 4.69 -2.04 2.38 0 0 Z " fill="#545981" transform="translate(281,76)"/>
<path d="M0 0 C3.875 1.875 3.875 1.875 5 3 C5.14115161 5.67058851 5.04247107 8.32432238 5 11 C4.67 11 4.34 11 4 11 C4 8.69 4 6.38 4 4 C3.34 4 2.68 4 2 4 C1.67 4.66 1.34 5.32 1 6 C1 5.34 1 4.68 1 4 C0.34 3.67 -0.32 3.34 -1 3 C-0.34 3 0.32 3 1 3 C0.67 2.01 0.34 1.02 0 0 Z " fill="#7D7FA4" transform="translate(281,280)"/>
<path d="M0 0 C1.30062431 3.81516464 0.89369853 7.27561763 0.5625 11.25 C0.46066406 12.51328125 0.35882813 13.7765625 0.25390625 15.078125 C0.17011719 16.04234375 0.08632812 17.0065625 0 18 C-0.33 18 -0.66 18 -1 18 C-1.33 12.72 -1.66 7.44 -2 2 C-1.34 2 -0.68 2 0 2 C0 1.34 0 0.68 0 0 Z " fill="#A279B1" transform="translate(134,223)"/>
<path d="M0 0 C0.33 0.66 0.66 1.32 1 2 C2.65 1.34 4.3 0.68 6 0 C6 1.32 6 2.64 6 4 C5.34 4 4.68 4 4 4 C4 4.66 4 5.32 4 6 C3.34 6 2.68 6 2 6 C2 5.34 2 4.68 2 4 C1.34 4 0.68 4 0 4 C0 2.68 0 1.36 0 0 Z " fill="#F0DEA3" transform="translate(114,16)"/>
<path d="M0 0 C0.33 0 0.66 0 1 0 C0.67 2.97 0.34 5.94 0 9 C-1.65 7.35 -3.3 5.7 -5 4 C-4.01 3.67 -3.02 3.34 -2 3 C-1.34 3.33 -0.68 3.66 0 4 C0 2.68 0 1.36 0 0 Z " fill="#7F819D" transform="translate(117,301)"/>
<path d="M0 0 C1.32 0 2.64 0 4 0 C3.67 1.98 3.34 3.96 3 6 C2.01 6 1.02 6 0 6 C0 4.02 0 2.04 0 0 Z " fill="#494C74" transform="translate(339,292)"/>
<path d="M0 0 C1.9375 1.5 1.9375 1.5 2.6875 5.125 C2.77 6.23875 2.8525 7.3525 2.9375 8.5 C0.9375 5.5 0.9375 5.5 0.9375 2.5 C0.2775 2.5 -0.3825 2.5 -1.0625 2.5 C-1.3925 3.16 -1.7225 3.82 -2.0625 4.5 C-2.7225 3.18 -3.3825 1.86 -4.0625 0.5 C-2.0625 -0.5 -2.0625 -0.5 0 0 Z " fill="#8383A2" transform="translate(648.0625,283.5)"/>
<path d="M0 0 C0.66 0 1.32 0 2 0 C2 2.31 2 4.62 2 7 C-0.97 6.505 -0.97 6.505 -4 6 C-4 5.34 -4 4.68 -4 4 C-2.68 4.33 -1.36 4.66 0 5 C0 3.35 0 1.7 0 0 Z " fill="#F1EBCB" transform="translate(132,72)"/>
<path d="M0 0 C2.72426311 2.35277269 3.8141763 4.62496331 5 8 C4.01 8 3.02 8 2 8 C-0.1519437 4.77208445 -0.20086443 3.71599191 0 0 Z " fill="#616487" transform="translate(333,282)"/>
<path d="M0 0 C1.32 0.33 2.64 0.66 4 1 C3.67 1.66 3.34 2.32 3 3 C2.34 3 1.68 3 1 3 C0.34 4.32 -0.32 5.64 -1 7 C-2 4 -2 4 -1.0625 1.8125 C-0.5365625 0.9153125 -0.5365625 0.9153125 0 0 Z " fill="#5C6085" transform="translate(471,125)"/>
<path d="M0 0 C0.66 0 1.32 0 2 0 C2 1.65 2 3.3 2 5 C3.32 4.67 4.64 4.34 6 4 C6 4.66 6 5.32 6 6 C4.34385343 6.38218767 2.67542976 6.71395102 1 7 C0 6 0 6 -0.0625 2.9375 C-0.041875 1.968125 -0.02125 0.99875 0 0 Z " fill="#EFE7CA" transform="translate(100,72)"/>
<path d="M0 0 C2.475 0.495 2.475 0.495 5 1 C4.67 2.65 4.34 4.3 4 6 C1 4 1 4 0.3125 1.875 C0.209375 1.25625 0.10625 0.6375 0 0 Z " fill="#2D3063" transform="translate(543,294)"/>
<path d="M0 0 C0.33 0 0.66 0 1 0 C1.66 2.97 2.32 5.94 3 9 C1.68 9.33 0.36 9.66 -1 10 C-1.33 9.01 -1.66 8.02 -2 7 C-1.34 7 -0.68 7 0 7 C0 4.69 0 2.38 0 0 Z " fill="#747499" transform="translate(691,287)"/>
<path d="M0 0 C0.66 0 1.32 0 2 0 C2 2.31 2 4.62 2 7 C1.01 7 0.02 7 -1 7 C-1.04254356 5.00045254 -1.04080783 2.99958364 -1 1 C-0.67 0.67 -0.34 0.34 0 0 Z " fill="#474A74" transform="translate(585,290)"/>
<path d="M0 0 C1.32 0.66 2.64 1.32 4 2 C3.34 3.32 2.68 4.64 2 6 C0.68 4.68 -0.64 3.36 -2 2 C-1.34 2 -0.68 2 0 2 C0 1.34 0 0.68 0 0 Z " fill="#6A6C90" transform="translate(493,281)"/>
<path d="M0 0 C0.66 0 1.32 0 2 0 C1.67 2.31 1.34 4.62 1 7 C0.34 7 -0.32 7 -1 7 C-1.04254356 5.00045254 -1.04080783 2.99958364 -1 1 C-0.67 0.67 -0.34 0.34 0 0 Z " fill="#47436F" transform="translate(111,132)"/>
<path d="M0 0 C0.66 0.33 1.32 0.66 2 1 C1.3125 3.4375 1.3125 3.4375 0 6 C-2.625 6.8125 -2.625 6.8125 -5 7 C-3.35 4.69 -1.7 2.38 0 0 Z " fill="#9E7AA9" transform="translate(222,116)"/>
<path d="M0 0 C0.66 0.66 1.32 1.32 2 2 C0.71034824 3.37562854 -0.62689293 4.70766393 -2 6 C-2.66 6 -3.32 6 -4 6 C-3.6875 4.125 -3.6875 4.125 -3 2 C-2.01 1.34 -1.02 0.68 0 0 Z " fill="#65698D" transform="translate(24,91)"/>
<path d="M0 0 C0 0.33 0 0.66 0 1 C-1.134375 1.12375 -2.26875 1.2475 -3.4375 1.375 C-5.2009375 1.684375 -5.2009375 1.684375 -7 2 C-7.33 2.66 -7.66 3.32 -8 4 C-9.32 3.34 -10.64 2.68 -12 2 C-8.09971775 -0.60018816 -4.52565431 -0.15085514 0 0 Z " fill="#CBA24A" transform="translate(104,47)"/>
<path d="M0 0 C3.3 0 6.6 0 10 0 C10 1.32 10 2.64 10 4 C9.34 4 8.68 4 8 4 C8 3.34 8 2.68 8 2 C5.36 1.67 2.72 1.34 0 1 C0 0.67 0 0.34 0 0 Z " fill="#FAF7D9" transform="translate(134,46)"/>
<path d="M0 0 C0.66 0 1.32 0 2 0 C2.66 1.98 3.32 3.96 4 6 C1.525 5.01 1.525 5.01 -1 4 C-1.33 4.66 -1.66 5.32 -2 6 C-2 4.68 -2 3.36 -2 2 C-1.34 2 -0.68 2 0 2 C0 1.34 0 0.68 0 0 Z " fill="#F5EAC2" transform="translate(116,28)"/>
<path d="M0 0 C-0.33 0.99 -0.66 1.98 -1 3 C-3.64 3 -6.28 3 -9 3 C-6.38997624 -0.48003168 -4.1689578 -0.27793052 0 0 Z " fill="#6B6F8B" transform="translate(379,298)"/>
<path d="M0 0 C1.32 0.66 2.64 1.32 4 2 C2.68 3.32 1.36 4.64 0 6 C-0.33 5.34 -0.66 4.68 -1 4 C-1.99 4.495 -1.99 4.495 -3 5 C-1.125 1.125 -1.125 1.125 0 0 Z " fill="#8182A4" transform="translate(557,281)"/>
<path d="M0 0 C0.66 0.66 1.32 1.32 2 2 C-2.79137588 3.6290678 -6.05632546 4.20577428 -11 3 C-11 2.67 -11 2.34 -11 2 C-9.21128822 1.61114961 -7.41887126 1.23930804 -5.625 0.875 C-4.62726562 0.66617188 -3.62953125 0.45734375 -2.6015625 0.2421875 C-1.74304687 0.16226563 -0.88453125 0.08234375 0 0 Z " fill="#8E90B1" transform="translate(35,150)"/>
<path d="M0 0 C-0.33 0.99 -0.66 1.98 -1 3 C-3.375 3.625 -3.375 3.625 -6 4 C-6.66 3.34 -7.32 2.68 -8 2 C-4.77208445 -0.1519437 -3.71599191 -0.20086443 0 0 Z " fill="#A484AD" transform="translate(167,124)"/>
<path d="" fill="#FAF5FD" transform="translate(0,0)"/>
<path d="" fill="#FFF5FF" transform="translate(0,0)"/>
<path d="" fill="#FDF5FE" transform="translate(0,0)"/>
<path d="" fill="#F7F7F3" transform="translate(0,0)"/>
<path d="" fill="#F7F7F5" transform="translate(0,0)"/>
<path d="" fill="#F5F8FD" transform="translate(0,0)"/>
<path d="" fill="#F5F3F4" transform="translate(0,0)"/>
</svg>
