<?xml version="1.0" encoding="UTF-8"?>
<svg xmlns="http://www.w3.org/2000/svg" viewBox="0 -15 680 325" width="680" height="325">

  <!-- Tree and Book (main shapes only, no artifacts) -->
  <g shape-rendering="geometricPrecision" transform="translate(0,-15)">
    <path d="M0 0 C3.63182117 1.46226498 5.24169871 3.29504292 7.4375 6.5 C8.27087891 7.69109375 8.27087891 7.69109375 9.12109375 8.90625 C14.04345741 17.01126459 16.91648741 24.61999877 18.9375 33.875 C22.3518575 48.32485191 26.08821913 58.59864152 39 66.9375 C39.66 67.288125 40.32 67.63875 41 68 C40.67386719 66.89140625 40.34773438 65.7828125 40.01171875 64.640625 C38.76726029 59.65400416 38.74040578 54.86489542 38.8125 49.75 C38.8134668 48.42355469 38.8134668 48.42355469 38.81445312 47.0703125 C38.8408011 43.19423215 38.9332971 39.74755872 40 36 C41.43793392 36.31049726 42.8753318 36.6234776 44.3125 36.9375 C45.11300781 37.11152344 45.91351563 37.28554687 46.73828125 37.46484375 C49 38 49 38 52 39 C51.94199219 40.24652344 51.88398437 41.49304688 51.82421875 42.77734375 C51.17024378 63.01656905 56.05766299 77.83883588 68.5625 93.9375 C79.11919653 107.72583832 83.00786962 124.38855692 86.0625 141.1875 C86.1897345 141.8790921 86.31696899 142.5706842 86.44805908 143.28323364 C91.11673335 168.79668068 95.72390885 196.2935165 90 222 C86.96525291 219.05721495 84.06934208 216.02568744 81.25 212.875 C80.65703125 212.21242188 80.0640625 211.54984375 79.453125 210.8671875 C78 209 78 209 77 206 C75.68711709 205.29391171 74.3506061 204.63094008 73 204 C71.88842041 203.03149501 70.80721508 202.02757354 69.75 201 C47.69934294 181.36753768 17.70743033 174.31511535 -11 172 C-11.13392857 163.96428571 -11.13392857 163.96428571 -10 160 C14.27329987 160.67802514 36.83045904 166.70191376 58.24609375 178.07470703 C60.80907628 179.42683729 63.40389905 180.71288815 66 182 C67.33333333 182.66666667 68.66666667 183.33333333 70 184 C69.97679688 183.40316406 69.95359375 182.80632812 69.9296875 182.19140625 C69.80737726 176.31177814 70.23067579 170.63709935 71 164.8125 C73.22897632 147.17280873 71.86319763 131.00968937 65.76953125 114.2578125 C65 112 65 112 65 110 C50.58906953 104.9962047 38.8331467 103.16566761 24 108 C22.60577948 108.40147711 21.21016161 108.79817142 19.8125 109.1875 C18.4203125 109.5896875 18.4203125 109.5896875 17 110 C16.32880451 108.5437455 15.66318193 107.08492133 15 105.625 C14.62875 104.81289062 14.2575 104.00078125 13.875 103.1640625 C13 101 13 101 13 99 C26.50478877 93.29313765 37.39392046 91.40110964 52 93 C42.22220629 81.92808653 30.91361978 76.19136198 16.2265625 74.72265625 C9.68459237 74.48284796 3.60934796 75.7478506 -2.73828125 77.24609375 C-5.81524371 77.95729585 -8.88048293 78.51390279 -12 79 C-12.67119549 77.5437455 -13.33681807 76.08492133 -14 74.625 C-14.37125 73.81289062 -14.7425 73.00078125 -15.125 72.1640625 C-16 70 -16 70 -16 68 C-14.02231717 67.37032046 -12.04276065 66.74652511 -10.0625 66.125 C-8.96035156 65.77695313 -7.85820312 65.42890625 -6.72265625 65.0703125 C-2.51409539 63.86029605 1.71697989 62.90315991 6 62 C4.99582031 61.34515625 3.99164062 60.6903125 2.95703125 60.015625 C-4.16988494 55.28944642 -10.97868814 50.45732919 -17.25 44.625 C-17.77360107 44.13805664 -18.29720215 43.65111328 -18.83666992 43.14941406 C-21.8340412 40.28991499 -24.48700795 37.29082292 -27 34 C-25.50902342 30.2047869 -23.24299151 28.38957269 -20 26 C-17.01438259 27.10578423 -15.82945629 28.21091978 -13.7890625 30.734375 C-10.9318819 34.24223199 -7.64799665 36.89245788 -4.0625 39.625 C-3.46759766 40.0890625 -2.87269531 40.553125 -2.25976562 41.03125 C1.39298232 43.85763857 5.12853898 46.48207268 9 49 C6.39360277 35.07980028 3.74239051 22.48999896 -5 11 C-5 10.34 -5 9.68 -5 9 C-5.66 9 -6.32 9 -7 9 C-6.82374165 6.62051228 -6.30280227 5.29774151 -4.59765625 3.62109375 C-3.09350908 2.37884514 -1.54870149 1.18623944 0 0 Z " fill="#2C316A" transform="translate(27,88)"/>
    <path d="M0 0 C1.32 0 2.64 0 4 0 C4 0.66 4 1.32 4 2 C4.66 2 5.32 2 6 2 C6 2.66 6 3.32 6 4 C7.32 4.66 8.64 5.32 10 6 C8.87548273 8.9719385 7.77706209 11.33440687 6 14 C5.34 14 4.68 14 4 14 C3.7525 14.78375 3.505 15.5675 3.25 16.375 C2.59352567 18.27877555 1.92117569 20.18101689 1.1171875 22.02734375 C-2.32869097 29.96371739 -6 40.24819627 -6 49 C-5.30132812 48.4946875 -4.60265625 47.989375 -3.8828125 47.46875 C-2.97273438 46.8190625 -2.06265625 46.169375 -1.125 45.5 C-0.22007812 44.8503125 0.68484375 44.200625 1.6171875 43.53125 C4 42 4 42 6 42 C6 41.34 6 40.68 6 40 C6.66 40 7.32 40 8 40 C8 39.34 8 38.68 8 38 C9.6796875 36.37890625 9.6796875 36.37890625 11.875 34.5625 C14.46193722 32.41599116 16.11184374 30.83223438 18 28 C18.66 28 19.32 28 20 28 C20 27.34 20 26.68 20 26 C21.32 26 22.64 26 24 26 C24 26.66 24 27.32 24 28 C24.66 28 25.32 28 26 28 C26 28.66 26 29.32 26 30 C27.32 30.66 28.64 31.32 30 32 C28.58785046 36.55025964 26.05551956 39.33761009 22.6875 42.5625 C22.21376953 43.03107422 21.74003906 43.49964844 21.25195312 43.98242188 C13.05496066 52 13.05496066 52 10 52 C10 52.66 10 53.32 10 54 C8.02 54.66 6.04 55.32 4 56 C4 56.66 4 57.32 4 58 C0.04 59.98 0.04 59.98 -4 62 C-3.26136719 62.09796875 -2.52273437 62.1959375 -1.76171875 62.296875 C5.5667945 63.37706247 12.13956657 65.21801321 19 68 C17.95902388 71.86648272 16.96301592 75.49461443 15 79 C11.23596999 78.52949625 7.61167498 77.94863092 3.9375 77 C-9.21039605 73.61839142 -22.05281997 74.2658183 -34.0390625 80.9765625 C-36 82 -36 82 -38 82 C-38 82.66 -38 83.32 -38 84 C-38.70125 84.4125 -39.4025 84.825 -40.125 85.25 C-43.69135061 87.42082211 -46.11888799 89.98488278 -49 93 C-48.28457031 92.84144531 -47.56914062 92.68289062 -46.83203125 92.51953125 C-38.87925174 91.06060756 -31.39678811 91.8769628 -23.625 93.8125 C-22.95944092 93.9777417 -22.29388184 94.1429834 -21.6081543 94.31323242 C-17.45148462 95.42247807 -13.78034745 96.95767607 -10 99 C-10.78318689 102.91593446 -12.39179858 106.36406635 -14 110 C-17.84778833 109.3268142 -21.37446216 108.21254654 -25.0625 106.9375 C-38.28211858 102.88704448 -49.24201627 105.74733876 -62 110 C-62.12503906 110.71027344 -62.25007813 111.42054688 -62.37890625 112.15234375 C-63.01609338 115.07378661 -63.92380636 117.75093463 -64.9375 120.5625 C-71.30198681 139.58652965 -69.06793593 158.14170571 -66.27539062 177.61254883 C-66 180 -66 180 -66 184 C-65.14019531 183.49210938 -64.28039062 182.98421875 -63.39453125 182.4609375 C-40.31703442 168.96532532 -14.17059859 159.06308281 13 160 C14.26237731 162.52475462 14.09856404 164.31200466 14.0625 167.125 C14.05347656 168.03507813 14.04445313 168.94515625 14.03515625 169.8828125 C14.02355469 170.58148438 14.01195312 171.28015625 14 172 C13.3922876 172.06993164 12.7845752 172.13986328 12.15844727 172.21191406 C-7.91922585 174.56442658 -25.37224124 178.22220071 -43.97973633 186.21557617 C-45.9685161 186.9877755 -47.92110451 187.52995079 -50 188 C-50 188.66 -50 189.32 -50 190 C-51.43570266 190.81567174 -52.87363434 191.62742093 -54.3125 192.4375 C-55.51326172 193.11619141 -55.51326172 193.11619141 -56.73828125 193.80859375 C-59 195 -59 195 -62 196 C-62 196.66 -62 197.32 -62 198 C-63.65071396 199.02611949 -65.31970006 200.02308143 -67 201 C-67.556875 201.556875 -68.11375 202.11375 -68.6875 202.6875 C-69.120625 203.120625 -69.55375 203.55375 -70 204 C-70.66 204 -71.32 204 -72 204 C-72 204.66 -72 205.32 -72 206 C-72.66 206 -73.32 206 -74 206 C-74.99 207.98 -74.99 207.98 -76 210 C-76.66 210 -77.32 210 -78 210 C-77.98839844 209.20980469 -77.97679688 208.41960937 -77.96484375 207.60546875 C-77.85432982 193.7912273 -78.39995133 180.21817284 -80.5625 166.5625 C-84.55774209 140.49005975 -80.12199151 119.31549005 -68 96 C-67.34 96 -66.68 96 -66 96 C-65.71125 95.4225 -65.4225 94.845 -65.125 94.25 C-64.08333333 92.16666667 -63.04166667 90.08333333 -62 88 C-61.34 88 -60.68 88 -60 88 C-59.34 86.02 -58.68 84.04 -58 82 C-57.34 82 -56.68 82 -56 82 C-56 80.68 -56 79.36 -56 78 C-55.34 78 -54.68 78 -54 78 C-53.7834375 76.9171875 -53.7834375 76.9171875 -53.5625 75.8125 C-53.04166667 73.20833333 -52.52083333 70.60416667 -52 68 C-51.34 68 -50.68 68 -50 68 C-50.020625 67.05125 -50.04125 66.1025 -50.0625 65.125 C-50 62 -50 62 -49 60 C-48.91599471 58.40552536 -48.89272533 56.80759455 -48.90234375 55.2109375 C-48.90556641 54.26992187 -48.90878906 53.32890625 -48.91210938 52.359375 C-48.92048828 51.37453125 -48.92886719 50.3896875 -48.9375 49.375 C-48.94201172 48.38242188 -48.94652344 47.38984375 -48.95117188 46.3671875 C-48.96297855 43.9113984 -48.979446 41.45572896 -49 39 C-47.56445975 38.49440092 -46.1264798 37.9957251 -44.6875 37.5 C-43.88699219 37.2215625 -43.08648437 36.943125 -42.26171875 36.65625 C-40 36 -40 36 -37 36 C-35.69538199 40.58340612 -35.81595061 45.01575959 -35.8125 49.75 C-35.80025391 50.61882812 -35.78800781 51.48765625 -35.77539062 52.3828125 C-35.76288524 57.93520256 -36.43222152 62.6707925 -38 68 C-36.576875 67.01 -36.576875 67.01 -35.125 66 C-32 64 -32 64 -30 64 C-30 63.34 -30 62.68 -30 62 C-28.125 59.875 -28.125 59.875 -26 58 C-25.34 58 -24.68 58 -24 58 C-23.731875 57.13375 -23.46375 56.2675 -23.1875 55.375 C-22 52 -22 52 -20.578125 49.4609375 C-18.09288957 44.01064395 -17.17501472 38.25276576 -15.98242188 32.40625 C-14.28773469 24.46480327 -11.69623836 17.22993688 -8 10 C-7.34 10 -6.68 10 -6 10 C-5.71125 9.4225 -5.4225 8.845 -5.125 8.25 C-4.08333333 6.16666667 -3.04166667 4.08333333 -2 2 C-1.34 2 -0.68 2 0 2 C0 1.34 0 0.68 0 0 Z " fill="#692F7C" transform="translate(204,88)"/>
    <path d="M0 0 C30.10185937 -0.55936008 57.30327162 1.91551086 84 17 C84.98226562 17.54269531 85.96453125 18.08539063 86.9765625 18.64453125 C96.80887405 24.46741316 106.7435925 32.70330143 112.55859375 42.671875 C114.03860437 44.275098 114.03860437 44.275098 116.89453125 44.51171875 C121.02834639 43.83054921 121.83512609 42.42212419 124.25 39.0625 C142.40799302 15.46617297 171.49496227 4.1929044 200.3046875 0.34375 C206.8671165 -0.28296974 213.47815781 -0.10468652 220.0625 -0.0625 C221.41861813 -0.05747314 222.77473808 -0.05291234 224.13085938 -0.04882812 C227.42061994 -0.03712079 230.71028594 -0.02072211 234 0 C234 3.96 234 7.92 234 12 C232.11539063 12.03738281 230.23078125 12.07476562 228.2890625 12.11328125 C214.34787953 12.44934685 200.6337666 12.82131317 187 16 C186.31115723 16.1542041 185.62231445 16.3084082 184.91259766 16.46728516 C168.83027858 20.1968958 153.14361719 27.70574734 141 39 C140.28714844 39.63421875 139.57429687 40.2684375 138.83984375 40.921875 C134.89233519 44.61113534 132.78253511 47.48923636 130.75 52.5 C129.18374154 55.32102014 128.03636058 56.69601054 124.90087891 57.61572266 C118.94723213 58.5870515 112.82445496 58.72581334 107 57 C104.13017856 54.55864335 103.03921039 52.47980362 101.46484375 49.078125 C94.70974703 34.88341508 75.21849177 25.24014057 61 20 C45.48380421 14.94630368 29.98203301 12.7706184 13.6875 12.375 C12.349588 12.33667651 11.01169687 12.2976174 9.67382812 12.2578125 C6.44941828 12.16468875 3.22472928 12.08131368 0 12 C0 8.04 0 4.08 0 0 Z " fill="#2D336A" transform="translate(0,271)"/>
    <path d="M0 0 C1.58251594 4.97362152 2.41607621 9.65056433 2.6875 14.875 C2.7280249 15.57173828 2.7685498 16.26847656 2.81030273 16.98632812 C3.06450992 22.13028533 2.81560038 26.92515322 2 32 C10.058105 25.4174541 10.058105 25.4174541 16 17 C16.66 17 17.32 17 18 17 C18.268125 16.13375 18.53625 15.2675 18.8125 14.375 C19.97111987 11.08208036 21.38209839 8.08872125 23 5 C26.02419525 5.58803797 29.01758453 6.22678118 32 7 C32 7.66 32 8.32 32 9 C32.66 9 33.32 9 34 9 C32.05045834 16.21330414 28.12247118 22.81629324 24 29 C23.34 29 22.68 29 22 29 C21.690625 29.804375 21.690625 29.804375 21.375 30.625 C19.46749574 33.91978009 16.95180616 36.59363628 14 39 C13.34 39 12.68 39 12 39 C12 39.66 12 40.32 12 41 C10.2163382 42.31990973 8.37010988 43.55572191 6.5 44.75 C2.01521071 47.65504081 -2.29130812 50.64880138 -6.4765625 53.96875 C-8 55 -8 55 -10 55 C-10 55.66 -10 56.32 -10 57 C-11.43359375 58.15625 -11.43359375 58.15625 -13.4375 59.5 C-27.69089435 69.89362562 -35.44436032 85.04233384 -39 102 C-39.93839854 108.67153415 -40.10481507 115.22211363 -40.18969727 121.95483398 C-40.36833302 134.93010649 -41.09188975 146.81122435 -46 159 C-46.66 159 -47.32 159 -48 159 C-52.20085686 147.92774157 -53.47274501 137.59379112 -53.4375 125.75 C-53.43492188 124.50847168 -53.43234375 123.26694336 -53.4296875 121.98779297 C-53.10841328 101.75019467 -48.95107853 85.42846914 -39 68 C-38.4534375 67.00871094 -37.906875 66.01742187 -37.34375 64.99609375 C-36.9003125 64.33738281 -36.456875 63.67867188 -36 63 C-35.34 63 -34.68 63 -34 63 C-34 62.34 -34 61.68 -34 61 C-33.34 61 -32.68 61 -32 61 C-32 60.34 -32 59.68 -32 59 C-31.34 59 -30.68 59 -30 59 C-30 58.34 -30 57.68 -30 57 C-29.34 57 -28.68 57 -28 57 C-28 56.34 -28 55.68 -28 55 C-27.34 55 -26.68 55 -26 55 C-26 54.34 -26 53.68 -26 53 C-25.34 53 -24.68 53 -24 53 C-23.67 51.68 -23.34 50.36 -23 49 C-22.01 49 -21.02 49 -20 49 C-20 48.34 -20 47.68 -20 47 C-19.38125 46.79375 -18.7625 46.5875 -18.125 46.375 C-15.08866054 44.41030976 -14.95875369 42.4515133 -14 39 C-13.484375 37.88625 -12.96875 36.7725 -12.4375 35.625 C-8.87326458 26.13249546 -9.49048882 14.9525515 -11.72265625 5.2578125 C-11.81417969 4.51273438 -11.90570313 3.76765625 -12 3 C-8.61613364 -0.38386636 -4.56431325 -1.75550509 0 0 Z " fill="#6B327D" transform="translate(164,57)"/>
    <path d="M0 0 C1.6498275 0.42218816 3.29483665 0.86324425 4.9375 1.3125 C5.85402344 1.55613281 6.77054688 1.79976562 7.71484375 2.05078125 C8.46894531 2.36402344 9.22304687 2.67726562 10 3 C11 6 11 6 10.0625 9.4375 C7.12728015 20.43452233 9.07289319 32.2118916 13.8125 42.4375 C16.7813518 47.44291172 21.17461631 51.13472098 25.5715332 54.86889648 C31.31256766 59.85677346 34.19276938 64.39005789 39 71 C39.33 58.13 39.66 45.26 40 32 C44.63466892 30.84133277 47.33260039 31.29989006 52 32 C52.0744013 36.32328804 52.12871968 40.64623255 52.16479492 44.9699707 C52.17984066 46.43943782 52.20028238 47.90886034 52.22631836 49.37817383 C52.26288955 51.4957177 52.27976801 53.61266565 52.29296875 55.73046875 C52.3086792 57.00301514 52.32438965 58.27556152 52.34057617 59.58666992 C51.97719848 63.22852189 51.24823048 65.13752876 49 68 C48.34 68 47.68 68 47 68 C46.73316406 68.83402344 46.46632813 69.66804688 46.19140625 70.52734375 C44.6796793 74.93365609 42.91052896 79.222097 41.12304688 83.52148438 C39.70682816 86.99316266 38.57675066 90.29028281 38 94 C37.34 94 36.68 94 36 94 C35.70867187 93.32195312 35.41734375 92.64390625 35.1171875 91.9453125 C26.11043957 71.49602946 12.63649273 59.44620169 -5.25 46.875 C-18.29312957 37.65992173 -28.87310309 27.05213616 -35 12 C-35 11.34 -35 10.68 -35 10 C-33.73308493 9.32591692 -32.46129251 8.66099503 -31.1875 8 C-30.47980469 7.62875 -29.77210937 7.2575 -29.04296875 6.875 C-27 6 -27 6 -24 6 C-23.59910156 6.82242188 -23.19820312 7.64484375 -22.78515625 8.4921875 C-17.76052303 18.35915432 -11.85235432 26.15107324 -3 33 C-3.2475 31.329375 -3.2475 31.329375 -3.5 29.625 C-4.68807726 19.63117365 -3.61740147 10.75083761 -1 1 C-0.67 0.67 -0.34 0.34 0 0 Z " fill="#2E346B" transform="translate(71,56)"/>
    <path d="M0 0 C2.0078125 0.1328125 2.0078125 0.1328125 5.0078125 1.1328125 C5.0822138 5.45610054 5.13653218 9.77904505 5.17260742 14.1027832 C5.18765316 15.57225032 5.20809488 17.04167284 5.23413086 18.51098633 C5.27070205 20.6285302 5.28758051 22.74547815 5.30078125 24.86328125 C5.32434692 26.77210083 5.32434692 26.77210083 5.34838867 28.71948242 C4.98501098 32.36133439 4.25604298 34.27034126 2.0078125 37.1328125 C1.3478125 37.1328125 0.6878125 37.1328125 0.0078125 37.1328125 C-0.2603125 38.0403125 -0.5284375 38.9478125 -0.8046875 39.8828125 C-1.88795044 42.84753213 -2.97578207 44.7497879 -4.9921875 47.1328125 C-4.9921875 46.4728125 -4.9921875 45.8128125 -4.9921875 45.1328125 C-5.6521875 45.1328125 -6.3121875 45.1328125 -6.9921875 45.1328125 C-7.78970334 42.33935517 -8.10022839 39.92314783 -8.02978516 37.02270508 C-8.01291656 36.22540482 -7.99604797 35.42810455 -7.97866821 34.60664368 C-7.9547702 33.7554747 -7.93087219 32.90430573 -7.90625 32.02734375 C-7.88501068 31.14753342 -7.86377136 30.26772308 -7.84188843 29.36125183 C-7.79571127 27.50614673 -7.74679017 25.65110816 -7.6953125 23.79614258 C-7.6171958 20.9456152 -7.55018806 18.09497572 -7.484375 15.24414062 C-7.43816321 13.4426912 -7.39131052 11.64125807 -7.34375 9.83984375 C-7.32390045 8.98260208 -7.3040509 8.12536041 -7.28359985 7.24214172 C-7.07799842 0.25200582 -7.06194666 0.02605884 0 0 Z " fill="#6E3880" transform="translate(117.9921875,86.8671875)"/>
    <path d="M0 0 C3.98355132 -0.02493556 7.96707167 -0.04297028 11.95068359 -0.05493164 C13.96323241 -0.06236421 15.97575949 -0.07507829 17.98828125 -0.08789062 C24.42163371 -0.10405483 30.6439839 -0.02960975 37 1 C37 1.33 37 1.66 37 2 C31.06 2.495 31.06 2.495 25 3 C25 2.34 25 1.68 25 1 C17.08 1 9.16 1 1 1 C1 4.3 1 7.6 1 11 C8.92 11 16.84 11 25 11 C25 11.33 25 11.66 25 12 C16.75 12 8.5 12 0 12 C0 8.04 0 4.08 0 0 Z " fill="#9DA0B4" transform="translate(0,271)"/>
    <path d="M0 0 C2.62187494 1.04874998 3.79371361 1.64931313 5.25 4.125 C5.4975 4.74375 5.745 5.3625 6 6 C5.01 6 4.02 6 3 6 C3 5.34 3 4.68 3 4 C-0.43338516 5.20632452 -2.50364585 6.38477184 -5 9 C-5.66 9 -6.32 9 -7 9 C-6.82374165 6.62051228 -6.30280227 5.29774151 -4.59765625 3.62109375 C-3.09350908 2.37884514 -1.54870149 1.18623944 0 0 Z " fill="#55597D" transform="translate(27,88)"/>
    <path d="M0 0 C1.32 0.66 2.64 1.32 4 2 C3.401875 2.2475 2.80375 2.495 2.1875 2.75 C-0.39231944 4.22418254 -1.5815864 5.38713283 -3 8 C-2.77802187 10.6984589 -2.77802187 10.6984589 -2 13 C-3.65 11.35 -5.3 9.7 -7 8 C-5.50902342 4.2047869 -3.24299151 2.38957269 0 0 Z " fill="#626689" transform="translate(7,114)"/>
    <path d="M0 0 C-0.33 0.99 -0.66 1.98 -1 3 C-4.67568464 3.91892116 -6.16380575 3.95904856 -10 3 C-10 8.94 -10 14.88 -10 21 C-10.33 21 -10.66 21 -11 21 C-11.33 15.06 -11.66 9.12 -12 3 C-4.125 -0.375 -4.125 -0.375 0 0 Z " fill="#E5C7E9" transform="translate(167,124)"/>
    <path d="M0 0 C0.33 0 0.66 0 1 0 C1.19401633 1.81181405 1.38004375 3.62448532 1.5625 5.4375 C1.66691406 6.44683594 1.77132812 7.45617187 1.87890625 8.49609375 C1.93884766 9.73552734 1.93884766 9.73552734 2 11 C1.67 11.33 1.34 11.66 1 12 C0.76712992 13.68183948 0.58735834 15.3712416 0.4375 17.0625 C0.31181641 18.44115234 0.31181641 18.44115234 0.18359375 19.84765625 C0.12300781 20.55792969 0.06242187 21.26820313 0 22 C-1.32 21.34 -2.64 20.68 -4 20 C-3.01 20 -2.02 20 -1 20 C-1.01160156 19.31035156 -1.02320312 18.62070312 -1.03515625 17.91015625 C-1.09342124 11.84227348 -0.78903948 6.01642604 0 0 Z " fill="#8487A5" transform="translate(98,252)"/>
    <path d="M0 0 C1.27351308 2.54702616 0.80191925 3.4282945 0.0625 6.125 C-0.13214844 6.84945312 -0.32679687 7.57390625 -0.52734375 8.3203125 C-0.76130859 9.15175781 -0.76130859 9.15175781 -1 10 C-1.66 10 -2.32 10 -3 10 C-3.66 7.69 -4.32 5.38 -5 3 C-4.34 3 -3.68 3 -3 3 C-1.37485532 1.54166642 -1.37485532 1.54166642 0 0 Z " fill="#6E6D8D" transform="translate(110,140)"/>
    <path d="M0 0 C-0.66 0 -1.32 0 -2 0 C-2.33 0.66 -2.66 1.32 -3 2 C-4.8125 4.1875 -4.8125 4.1875 -7 6 C-9.25 5.75 -9.25 5.75 -11 5 C-11 4.34 -11 3.68 -11 3 C-9.73581754 2.30034557 -8.46334598 1.61565237 -7.1875 0.9375 C-6.47980469 0.55464844 -5.77210937 0.17179687 -5.04296875 -0.22265625 C-3 -1 -3 -1 0 0 Z " fill="#606388" transform="translate(47,63)"/>
    <path d="M0 0 C1.30062431 3.81516464 0.89369853 7.27561763 0.5625 11.25 C0.46066406 12.51328125 0.35882813 13.7765625 0.25390625 15.078125 C0.17011719 16.04234375 0.08632812 17.0065625 0 18 C-0.33 18 -0.66 18 -1 18 C-1.33 12.72 -1.66 7.44 -2 2 C-1.34 2 -0.68 2 0 2 C0 1.34 0 0.68 0 0 Z " fill="#A279B1" transform="translate(134,223)"/>
    <path d="M0 0 C0.66 0.66 1.32 1.32 2 2 C-2.79137588 3.6290678 -6.05632546 4.20577428 -11 3 C-11 2.67 -11 2.34 -11 2 C-9.21128822 1.61114961 -7.41887126 1.23930804 -5.625 0.875 C-4.62726562 0.66617188 -3.62953125 0.45734375 -2.6015625 0.2421875 C-1.74304687 0.16226563 -0.88453125 0.08234375 0 0 Z " fill="#8E90B1" transform="translate(35,150)"/>
    <!-- Star (geometric 5-pointed) -->
    <polygon points="118.0,31.0 126.2,44.7 141.8,48.3 131.3,60.3 132.7,76.2 118.0,70.0 103.3,76.2 104.7,60.3 94.2,48.3 109.8,44.7" fill="#EAB308" stroke="#D4A00A" stroke-width="0.5" stroke-linejoin="round"/>

    <!-- Star sparkle rays -->
    <g stroke="#EAB308" stroke-width="2.8" stroke-linecap="round">
      <line x1="118" y1="15" x2="118" y2="25"/>
      <line x1="94" y1="21" x2="102" y2="29"/>
      <line x1="142" y1="21" x2="134" y2="29"/>
    </g>
  </g>

  <!-- Text -->
  <text x="270" y="130" font-family="Arial, Helvetica, sans-serif"
        font-size="82" font-weight="bold" fill="#2D336A">Gia Sư</text>

  <text x="270" y="228" font-family="Arial, Helvetica, sans-serif"
        font-size="82" font-weight="bold" fill="#6B327D">Tinh Hoa</text>

  <text x="273" y="272" font-family="Arial, Helvetica, sans-serif"
        font-size="20" font-weight="500" fill="#6B7280"
        letter-spacing="3">PREMIUM TUTORING &amp; EDTECH</text>

</svg>